<?xml version="1.0" encoding="UTF-8" standalone="no"?>
<!-- Created with Inkscape (http://www.inkscape.org/) -->

<svg
   width="2.5in"
   height="3.5in"
   viewBox="0 0 63.5 88.9"
   version="1.1"
   id="svg1"
   xml:space="preserve"
   xmlns="http://www.w3.org/2000/svg"
   xmlns:svg="http://www.w3.org/2000/svg"><defs
     id="defs1"><rect
       x="25.881913"
       y="129.40957"
       width="198.1584"
       height="46.102158"
       id="rect4" /><rect
       x="21.029054"
       y="79.667764"
       width="198.5628"
       height="28.712747"
       id="rect3" /><rect
       x="13.725957"
       y="228.19404"
       width="194.73702"
       height="80.64"
       id="rect31" /><style
       id="style1">
      .cls-1 {
        fill: #a8a5a8;
        stroke-width: 0px;
      }
    </style><style
       id="style1-7">
      .cls-1, .cls-2 {
        fill: #fff;
      }

      .cls-2 {
        stroke-width: 0px;
      }

      .cls-3 {
        clip-path: url(#clippath);
      }
    </style><clipPath
       id="clippath"><path
         class="cls-2"
         d="m9.6357,16.0329h-1.3491c-.2573-2.7883-1.3547-5.1869-3.4277-7.1025,1.3546-2.1976,2.6768-4.3428,4.0659-6.5963,1.3823,2.2202,2.7173,4.3646,4.0873,6.5649-2.0114,1.9651-3.2545,4.2966-3.3764,7.1339Zm3.7295-6.5381c-1.8183,1.87-2.7905,3.9828-3.0509,6.5087h7.1206c-1.3836-2.2128-2.7162-4.3441-4.0696-6.5087ZM.5482,15.9748h6.937c-.1058-2.5218-1.1489-4.6033-3.0325-6.4627-1.3158,2.178-2.5763,4.2642-3.9045,6.4627Z"
         id="path1-1" /></clipPath><style
       id="style1-2">
      .cls-1 {
        stroke-width: 0px;
      }
    </style><style
       id="style1-1">
      .cls-1, .cls-2 {
        fill: #fff;
      }

      .cls-2 {
        stroke-width: 0px;
      }

      .cls-3 {
        clip-path: url(#clippath);
      }
    </style><clipPath
       id="clippath-4"><path
         class="cls-2"
         d="m13.4756,16.0329H4.5212c2.6745-4.2169,3.7386-8.8955,4.4772-13.6988.8087,4.7786,1.7168,9.4962,4.4772,13.6988Zm-9.3208-.9449c2.4067-3.7766,3.2244-7.9395,3.8788-12.175-.9746,3.1221-2.7878,5.6496-5.4049,7.6404.513,1.5244.9986,2.967,1.5261,4.5346Zm-1.8011-5.3187c2.0332-1.6939,3.5793-3.6272,4.3844-6.1213-1.6739,1.2362-3.3478,2.4724-5.0982,3.7651.2331.7696.4626,1.5272.7138,2.3561Zm13.0006.7841c-2.6171-1.9908-4.4303-4.5183-5.4049-7.6404.6544,4.2356,1.4721,8.3984,3.8788,12.175.5276-1.5676,1.0131-3.0102,1.5261-4.5346Zm.9888-3.1402c-1.7504-1.2927-3.4243-2.5289-5.0982-3.7651.8051,2.4941,2.3512,4.4274,4.3844,6.1213.2511-.8289.4806-1.5866.7138-2.3561Z"
         id="path1-2" /></clipPath><style
       id="style1-4">
      .cls-1 {
        stroke-width: 0px;
      }
    </style><style
       id="style1-48">
      .cls-1 {
        fill: #fff;
        stroke-width: 0px;
      }
    </style><style
       id="style1-5">
      .cls-1 {
        fill: #fff;
        stroke-width: 0px;
      }
    </style><style
       id="style1-11">
      .cls-1 {
        fill: #fff;
        stroke-width: 0px;
      }
    </style><style
       id="style1-14">
      .cls-1 {
        fill: #fff;
        stroke-width: 0px;
      }
    </style><style
       id="style1-16">
      .cls-1 {
        fill: #fff;
        stroke-width: 0px;
      }
    </style><style
       id="style1-18">
      .cls-1 {
        fill: #fff;
        stroke-width: 0px;
      }
    </style><style
       id="style1-9">
      .cls-1 {
        fill: #fff;
        stroke-width: 0px;
      }
    </style><style
       id="style1-23">
      .cls-1 {
        fill: #fff;
        stroke-width: 0px;
      }
    </style><style
       id="style1-13">
      .cls-1 {
        fill: #fff;
        stroke-width: 0px;
      }
    </style><style
       id="style1-77">
      .cls-1 {
        fill: #fff;
        stroke-width: 0px;
      }
    </style><style
       id="style1-44">
      .cls-1 {
        fill: #fff;
        stroke-width: 0px;
      }
    </style>

   <g id="symbol-exert">
       <path fill="currentColor" d="M 29.096807,88.336194 7.4951859,75.858976 7.478166,50.835418 7.4611463,25.811859 16.145901,20.799092 C 20.922516,18.04207 30.671909,12.414402 37.811218,8.2931614 L 50.791779,0.79999821 61.715205,7.1055313 C 67.72309,10.573576 77.47618,16.203237 83.388744,19.615887 l 10.75011,6.20482 -0.017,25.014652 -0.017,25.014653 -7.584274,4.377731 c -4.171341,2.407749 -13.89017,8.018474 -21.597388,12.468275 -7.707219,4.449798 -14.060737,8.096582 -14.118927,8.103972 -0.05819,0.008 -9.82653,-5.601325 -21.707421,-12.463796 z m 21.855495,6.689764 c 0.171523,-0.05844 0.408972,-0.205583 0.527663,-0.326975 C 51.672426,94.502146 61.4614,78.614718 61.41611,78.5727 61.40604,78.5632 60.803448,78.52068 60.077185,78.47803 50.145926,77.894705 42.405675,75.110434 37.516391,70.362613 34.153742,67.097257 32.23246,63.053012 31.590151,57.888048 c -0.172145,-1.384254 -0.171222,-5.07612 0.0016,-6.534659 0.759416,-6.407972 3.3764,-11.020754 7.98668,-14.077594 5.114882,-3.391419 12.711362,-4.709383 21.080286,-3.657362 l 0.344552,0.04331 1.781926,-3.106172 c 0.980057,-1.708395 1.87631,-3.208929 1.991672,-3.33452 0.57291,-0.623717 1.586151,-0.638418 2.155785,-0.03127 0.112007,0.11939 1.838839,3.748324 4.362225,9.167221 4.528929,9.725751 4.36987,9.340783 4.124679,9.982803 -0.131528,0.344389 -0.527385,0.731345 -0.859111,0.839787 -0.125909,0.04116 -4.464608,0.775 -9.641549,1.630752 -7.167822,1.184848 -9.469141,1.542953 -9.649626,1.501563 -0.354529,-0.0813 -0.633239,-0.244937 -0.863095,-0.50673 -0.269403,-0.306831 -0.378159,-0.652962 -0.342037,-1.088558 0.02568,-0.309573 0.226098,-0.707138 1.626279,-3.225884 l 1.596999,-2.872793 -0.348834,-0.05543 c -0.585622,-0.09304 -3.930877,-0.08684 -4.750421,0.0089 -5.310396,0.61964 -8.299262,3.04098 -9.179571,7.436546 -0.18728,0.935133 -0.254183,3.021374 -0.134662,4.199185 0.10607,1.045318 0.3545,2.396028 0.658323,3.579419 0.228455,0.889818 0.821057,2.721209 1.071577,3.311621 0.139653,0.329113 1.769943,1.966459 2.690513,2.702149 3.129868,2.501289 6.578248,3.882575 10.606475,4.248538 1.138055,0.103394 3.795895,0.04978 4.936444,-0.09957 1.837181,-0.240579 3.775019,-0.673828 5.241729,-1.171918 l 0.751962,-0.255364 0.72766,-1.185041 C 78.791887,50.299907 90.138164,31.728525 90.198972,31.553108 90.368507,31.064014 90.246362,30.522257 89.877154,30.124799 89.715694,29.951033 85.622447,27.408516 77.54803,22.466586 70.899944,18.39764 62.433632,13.214074 58.733998,10.947552 55.034363,8.6810298 51.88929,6.7663542 51.744949,6.6927173 51.24706,6.4387115 50.517692,6.553048 50.103177,6.9500893 49.999295,7.0495943 41.239487,21.284874 30.636959,38.584034 l -19.277323,31.453015 -0.02624,0.41218 c -0.03156,0.495398 0.157256,0.966328 0.487779,1.216703 0.116036,0.0879 1.292752,0.822252 2.61492,1.631896 3.029703,1.855269 12.377717,7.581987 25.340593,15.523979 5.538765,3.393448 10.170586,6.198776 10.292935,6.234065 0.330102,0.0952 0.535947,0.08824 0.882626,-0.02988 z" />
   </g>
   
   <g id="symbol-ink">
      <path fill="currentColor" d="M -38.564453,-6.9355469 -80.365234,17.197266 V 65.464844 L -38.564453,89.599609 3.2363281,65.464844 V 17.197266 Z m 0,5.5859375 36.9628905,21.3398434 V 62.671875 L -38.564453,84.013672 -75.527344,62.671875 V 19.990234 Z" />
   </g>
   
   <g id="symbol-inkwell">
      <path fill="currentColor" d="m 49.815923,8.2563989 c -0.647629,0.013902 -1.295935,0.041688 -1.943592,0.086157 -0.630305,0.043542 -1.257359,0.1049673 -1.886146,0.1723071 -0.304406,0.032421 -0.694782,0.018536 -0.981376,0.1292356 -0.199356,0.076889 -0.373885,0.2762445 -0.536184,0.4116809 -0.363418,0.3033877 -0.721833,0.6159468 -1.077117,0.9287186 -1.241259,1.0926509 -2.4571,2.2132789 -3.599952,3.4084709 -3.714099,3.884199 -6.892855,8.128576 -9.239253,12.978052 -0.570277,1.178692 -1.03982,2.395181 -1.488815,3.623888 -0.247806,0.678107 -0.563886,1.441459 -0.6606,2.159019 l 1.613275,-0.957436 3.480282,-2.07764 10.139247,-6.055782 3.796232,-2.26433 1.34519,-0.804279 0.646239,-0.397323 0.416499,-0.866438 0.947867,-2.106367 c 0.377683,0.649482 0.651613,1.395734 0.957428,2.08243 0.122009,0.274111 0.225295,0.635401 0.411682,0.871255 0.121633,0.154052 0.374532,0.24966 0.540911,0.349429 l 1.22552,0.732393 c 1.410167,0.846057 2.826521,1.681456 4.236651,2.527626 0.480973,0.288565 0.964818,0.573148 1.445728,0.861715 0.190369,0.114321 0.440492,0.334792 0.660598,0.373422 0.14137,0.02408 0.324047,-0.03891 0.464393,-0.06206 0.317561,-0.05188 0.638644,-0.0944 0.957438,-0.138864 0.985524,-0.137284 1.974291,-0.226591 2.963261,-0.320711 2.759163,-0.262629 5.626018,-0.160163 8.372778,0.201024 3.36532,0.442621 6.666459,1.284827 9.79936,2.599437 1.032621,0.433266 2.049949,0.908127 3.035066,1.440949 0.477731,0.258459 0.947775,0.584913 1.44573,0.799464 -0.09496,-0.259293 -0.285046,-0.498484 -0.430858,-0.732394 -0.305054,-0.489678 -0.62799,-0.96604 -0.947848,-1.445717 -1.323329,-1.98406 -2.878601,-3.813394 -4.523891,-5.533978 C 74.659707,14.179229 65.345295,9.554306 55.637073,8.5149866 53.701392,8.3077568 51.758866,8.2144704 49.815858,8.2564349 Z m -8.090326,0.9718045 c -0.891914,0.073182 -1.83754,0.4237241 -2.695189,0.6702331 -2.044973,0.5876005 -4.039832,1.3258665 -5.974399,2.2116745 -8.888705,4.070014 -16.272475,11.264174 -20.532209,20.067856 -1.180889,2.440555 -2.129913,4.975036 -2.8387941,7.592463 -0.1973191,0.728688 -0.3775909,1.461997 -0.5265534,2.202107 -0.060205,0.296625 -0.1759174,0.629471 -0.1723044,0.933499 0.00203,0.176567 0.1020839,0.370272 0.1579481,0.536186 0.1355347,0.402787 0.2834702,0.802984 0.4308569,1.201574 0.5288679,1.430371 1.1352559,2.827631 1.7712589,4.212722 1.994791,4.344386 4.578056,8.468426 7.664266,12.121134 0.830033,0.982384 1.699826,1.934404 2.609018,2.843584 0.41724,0.41724 0.83837,0.909238 1.32126,1.249458 v -8.794055 -2.398377 c 0,-0.236783 0.09374,-0.721925 -0.02408,-0.928711 -0.136461,-0.239931 -0.627064,-0.434008 -0.856897,-0.583988 -0.519697,-0.339239 -1.048436,-0.669213 -1.570197,-1.005303 -0.279488,-0.179994 -0.569815,-0.427892 -0.880891,-0.545728 0.698209,-0.595103 1.594774,-1.061876 2.37444,-1.546259 0.2227,-0.138315 0.438453,-0.286898 0.660597,-0.426039 0.08709,-0.05466 0.238451,-0.116072 0.282453,-0.215383 0.09373,-0.211954 0.0139,-0.615671 0.0139,-0.847355 v -2.082568 -7.223849 -2.182958 c 0,-0.217235 -0.08616,-0.663101 0.02408,-0.852081 0.117651,-0.201394 0.534982,-0.346094 0.732393,-0.464392 l 1.886157,-1.124991 c 0.204636,-0.122833 0.624377,-0.279488 0.751569,-0.483476 0.06392,-0.102822 0.07411,-0.261237 0.1005,-0.378147 0.06484,-0.286341 0.129871,-0.576853 0.201025,-0.861714 0.220385,-0.881631 0.470784,-1.762226 0.775561,-2.618595 0.971397,-2.729352 2.211055,-5.335553 3.714849,-7.812673 1.945288,-3.204351 4.305406,-6.104602 6.855245,-8.841923 0.772597,-0.829384 1.593153,-1.625982 2.422315,-2.398377 0.42317,-0.394173 0.970659,-0.7671318 1.321261,-1.2255108 z M 67.863593,25.418443 c -1.122407,0.0016 -2.247527,0.07132 -3.360604,0.148407 -0.657727,0.04539 -1.323216,0.186107 -1.981888,0.191481 0.134796,0.156474 0.360545,0.248917 0.536187,0.354246 l 1.077115,0.64624 c 0.767318,0.460409 1.55165,1.056995 2.374439,1.407434 0.275875,0.117461 0.618172,0.152199 0.909609,0.225015 0.583247,0.145816 1.163555,0.300331 1.737742,0.478751 2.583003,0.802706 5.055371,1.929966 7.348328,3.365386 4.752622,2.97523 8.524739,7.319367 11.087104,12.283907 1.516245,2.937723 2.603262,6.077469 3.39411,9.282339 0.547024,2.216289 1.035948,4.527922 1.215943,6.80737 h 0.02408 c 0.02316,-0.278653 0.121546,-0.553972 0.177122,-0.82818 0.190647,-0.938278 0.470969,-1.932577 0.512193,-2.891458 h 0.02408 l 0.04818,0.148405 c 0.310706,-0.144784 0.613077,-0.5423 0.856899,-0.785103 0.449013,-0.446883 0.941455,-0.860603 1.421791,-1.273388 1.100571,-0.945867 2.269705,-1.828165 3.499434,-2.599437 0.650044,-0.407697 1.324193,-0.829663 2.034543,-1.12499 -0.23084,-0.191298 -0.56851,-0.30691 -0.832992,-0.450033 -0.486079,-0.262721 -0.95596,-0.55175 -1.42179,-0.847357 C 97.199566,49.103545 95.949532,48.096296 94.748969,47.05166 94.329692,46.686946 93.916343,46.309911 93.523456,45.917099 93.369489,45.763131 93.136973,45.594072 93.035165,45.40009 92.882776,45.109393 92.90852,44.60072 92.862858,44.275109 92.76031,43.54568 92.618665,42.817307 92.465536,42.096939 91.929535,39.576085 91.182478,37.111834 90.210775,34.724683 89.962043,34.11374 89.695987,33.509567 89.420854,32.910341 c -0.12793,-0.278562 -0.239932,-0.661897 -0.440399,-0.895157 -0.126918,-0.147566 -0.342574,-0.255032 -0.502653,-0.363789 -0.3397,-0.231316 -0.677087,-0.454664 -1.024459,-0.674955 -1.297611,-0.823179 -2.644357,-1.570522 -4.040943,-2.211687 -4.57136,-2.09875 -9.424837,-3.10333 -14.428552,-3.322307 -0.372773,-0.01664 -0.746103,-0.02408 -1.120201,-0.02408 z m 10.771156,10.407321 v 9.282342 2.522844 c 0,0.253085 -0.102359,0.780102 0.02408,1.000523 0.05281,0.09172 0.182495,0.144613 0.268092,0.201023 0.210565,0.138779 0.429469,0.270318 0.641516,0.406957 0.794272,0.511637 1.694978,0.972807 2.422305,1.574977 -0.261608,0.08337 -0.499688,0.300608 -0.732392,0.445218 -0.593343,0.368604 -1.17445,0.763889 -1.766469,1.134559 -0.197782,0.123864 -0.391764,0.253179 -0.588804,0.378147 -0.08338,0.05281 -0.21316,0.104402 -0.253735,0.201023 -0.06021,0.14257 -0.0139,0.382964 -0.0139,0.536185 v 1.225522 4.23665 c 0,2.335532 -0.101998,4.694585 0,7.027589 0.03891,0.881817 0.205471,1.763281 0.244101,2.647304 0.08708,1.984435 -0.05928,3.985211 -0.34943,5.95046 -0.351836,2.38868 -0.926478,4.761285 -1.689867,7.051518 -0.279579,0.838647 -0.573703,1.671811 -0.885614,2.498908 -0.163045,0.432154 -0.396211,0.872275 -0.502652,1.321261 0.532944,-0.265127 1.026184,-0.729613 1.493596,-1.096264 0.962995,-0.755181 1.895457,-1.545436 2.790928,-2.379229 3.515772,-3.273665 6.474607,-7.114148 8.717447,-11.364757 0.67366,-1.276621 1.26404,-2.586712 1.814342,-3.920702 0.166753,-0.403899 0.32942,-0.808262 0.473934,-1.22073 0.05744,-0.163596 0.150998,-0.342945 0.167577,-0.517011 0.04818,-0.516269 -0.06484,-1.073687 -0.1005,-1.589345 -0.07967,-1.16212 -0.211863,-2.324332 -0.363789,-3.480283 -0.57491,-4.366166 -1.628821,-8.697861 -3.413316,-12.733894 -1.450761,-3.281205 -3.387933,-6.390613 -5.873871,-8.990329 -0.500705,-0.52368 -1.010074,-1.029861 -1.54147,-1.522321 -0.302556,-0.280321 -0.622989,-0.621321 -0.981367,-0.82818 z M 8.2201277,45.76874 c -2.1915915,2.191602 -4.6919084,4.007687 -7.42013112,5.462171 0.16618693,0.137662 0.39824962,0.210658 0.58880582,0.311169 0.3566538,0.188241 0.7083991,0.389078 1.0531868,0.598441 1.0679346,0.648276 2.0837065,1.383605 3.0590036,2.163799 0.7696326,0.615669 1.4926235,1.278139 2.230824,1.929234 0.2730956,0.240856 0.5258095,0.649851 0.8568964,0.804279 l 0.072258,-0.148407 h 0.024076 c 0.00477,0.590565 0.1825886,1.205827 0.2872696,1.785618 0.252344,1.398354 0.6034402,2.776162 0.9957325,4.140917 0.1560087,0.542763 0.3229347,1.086222 0.5121917,1.618064 0.06855,0.193796 0.10459,0.466895 0.229836,0.631881 0.118938,0.156834 0.359433,0.260404 0.521827,0.368604 0.389541,0.259756 0.78075,0.522293 1.177645,0.770745 1.301855,0.815118 2.60771,1.617424 3.944637,2.37444 4.082234,2.311492 8.44098,4.235751 13.001981,5.375999 2.124891,0.531276 4.367999,0.957437 6.563223,0.957437 v -0.02408 C 34.927103,74.360834 33.978318,73.744712 33.008828,73.17524 31.276386,72.157635 29.547184,71.133851 27.814733,70.116237 26.711604,69.468237 25.60401,68.821024 24.506793,68.163066 24.02517,67.874223 23.454569,67.630215 23.017987,67.277452 22.392868,66.7723 21.818024,66.161523 21.227581,65.611516 19.020767,63.55585 17.051071,61.219289 15.286688,58.775419 13.287818,56.006769 11.612013,53.055677 10.087811,50.005309 9.6086908,49.046407 9.1860775,48.054361 8.7713393,47.065983 8.6520242,46.781585 8.5364101,46.495429 8.4219111,46.209086 8.3644838,46.064764 8.3255568,45.88504 8.220887,45.768686 Z m 3.5520853,21.992299 c 0.08894,0.375459 0.315801,0.759072 0.483475,1.105832 0.310244,0.641145 0.625952,1.277168 0.952646,1.910084 1.427177,2.764751 3.245207,5.351258 5.265901,7.712152 3.682408,4.302385 8.240379,7.868562 13.308358,10.402541 8.101871,4.05094 17.444118,5.382439 26.353415,3.834529 3.8203,-0.663657 7.454834,-1.88436 10.972216,-3.49943 0.918874,-0.421964 1.818681,-0.903679 2.695188,-1.407433 0.329421,-0.18926 0.805114,-0.364898 1.067537,-0.641516 0.288382,-0.303851 0.429283,-0.909609 0.593622,-1.292535 0.456797,-1.064303 0.879131,-2.140696 1.268607,-3.231346 1.218917,-3.413259 2.130841,-7.002613 2.379229,-10.62754 0.08894,-1.294563 0.05466,-2.578075 0.02871,-3.872824 -0.292085,0.09264 -0.567403,0.316728 -0.832998,0.469117 -0.61641,0.353875 -1.226918,0.724239 -1.838262,1.086722 -1.810137,1.073251 -3.623287,2.134146 -5.433451,3.207408 -3.864376,2.291234 -7.735164,4.570301 -11.608905,6.845667 -1.225493,0.719793 -2.457656,1.43765 -3.676554,2.16859 -0.357858,0.214549 -0.71933,0.422149 -1.077117,0.636698 -0.161002,0.09671 -0.372495,0.178883 -0.50265,0.315987 -0.207878,0.218902 -0.310893,0.622616 -0.435674,0.895248 -0.310244,0.677645 -0.573426,1.41453 -0.947868,2.058491 -0.273559,-0.705064 -0.612427,-1.397577 -0.933498,-2.082419 -0.122555,-0.261516 -0.217973,-0.663747 -0.421312,-0.871257 -0.195004,-0.199077 -0.534427,-0.330715 -0.775562,-0.469116 -0.476713,-0.273466 -0.948072,-0.559346 -1.421792,-0.83772 -1.593988,-0.936121 -3.183999,-1.883757 -4.777598,-2.819805 -0.898769,-0.527942 -1.78645,-1.06562 -2.690398,-1.584555 -0.328679,-0.188705 -0.734895,-0.550547 -1.105842,-0.631883 -0.146278,-0.03242 -0.339795,0.01945 -0.488294,0.03336 -0.315338,0.03056 -0.636328,0.03891 -0.952647,0.05281 -0.887654,0.03891 -1.787553,-0.01115 -2.67124,-0.07132 -2.72676,-0.186864 -5.429091,-0.832825 -8.032893,-1.642014 -3.536651,-1.099052 -6.913762,-2.676161 -10.163174,-4.43772 -1.07039,-0.58028 -2.118854,-1.206521 -3.159544,-1.838272 -0.468189,-0.284304 -0.926096,-0.644293 -1.421791,-0.876072 z" />
   </g>
   
   <g id="symbol-strength">
      <path fill="currentColor" d="M 85.098273,66.50193 100.79952,50.800432 85.098273,35.098604 c 1.00195,-9.212471 2.25427,-18.472183 2.2759,-18.62668 l 0.35187,-2.599341 -2.59844,0.352777 c -0.15429,0.02109 -9.413551,1.273949 -18.625897,2.276261 L 50.800909,0.8000005 35.099204,16.501621 C 25.886858,15.499349 16.626692,14.246489 16.472402,14.22536 l -2.600249,-0.352777 0.353683,2.599341 c 0.02167,0.154489 1.274855,9.413756 2.277252,18.626104 L 0.800477,50.800432 16.503088,66.502505 c -1.002397,9.212018 -2.255587,18.471034 -2.277252,18.625524 l -0.328435,2.42615 2.441468,-0.16603 c 0.161046,-0.0112 10.232783,-0.69258 19.846631,-1.20348 L 50.800909,100.8 65.415863,86.184799 c 9.612942,0.51089 19.68423,1.19206 19.84527,1.20335 l 2.44147,0.16603 -0.32843,-2.42615 c -0.0217,-0.15449 -1.27395,-9.414001 -2.2759,-18.626099 z m 10.05683,-15.701498 -10.5842,10.5842 c -0.0979,-1.01739 -0.18946,-2.01303 -0.27159,-2.970201 0.5576,-2.453085 0.87879,-4.994598 0.87879,-7.614041 0,-2.619442 -0.32119,-5.161163 -0.87879,-7.61437 0.0821,-0.957048 0.17369,-1.952771 0.27159,-2.970077 l 10.5842,10.584406 z m -19.288119,0 c 0,13.821465 -11.245558,25.065169 -25.066075,25.065169 -13.820518,0 -25.066075,-11.243746 -25.066075,-25.065169 0,-13.821424 11.245557,-25.066077 25.066075,-25.066077 13.820517,0 25.066075,11.244653 25.066075,25.066077 z m 7.207099,-32.275897 c -0.37399,2.861013 -0.995185,7.737399 -1.591548,12.958327 L 70.117901,20.117446 C 75.338293,19.521082 80.21398,18.899307 83.074083,18.524535 Z M 50.800909,6.4444235 61.385109,17.028954 c -1.016812,0.09798 -2.011548,0.189712 -2.968389,0.271594 -2.45366,-0.557935 -4.99571,-0.87912 -7.615811,-0.87912 -2.620102,0 -5.162646,0.321309 -7.616264,0.879243 -0.95639,-0.08201 -1.951537,-0.173566 -2.968389,-0.271594 z M 18.525919,18.524535 c 2.860558,0.374895 7.73674,0.996631 12.957543,1.593035 L 20.11883,31.482202 C 19.522467,26.261482 18.900814,21.385423 18.525919,18.524535 Z M 6.4449,50.800432 17.030007,40.215201 c 0.09835,1.017842 0.190371,2.013936 0.272007,2.971519 -0.557153,2.45296 -0.878338,4.994352 -0.878338,7.613671 0,2.619317 0.321185,5.160503 0.878338,7.613339 -0.08163,0.957624 -0.173691,1.953677 -0.272007,2.971643 L 6.4449,50.800391 Z m 12.057582,32.443737 c 0.372177,-2.835516 1.00734,-7.801242 1.615935,-13.12625 l 12.275921,12.27555 c -5.604265,0.31657 -10.913499,0.65559 -13.891814,0.8507 z M 50.800949,95.15558 41.561996,85.917069 c 3.734364,-0.17109 7.057795,-0.28646 9.238953,-0.28646 2.181161,0 5.50459,0.11524 9.238048,0.28646 z M 69.20715,82.39347 81.482618,70.117795 c 0.6081,5.325132 1.242855,10.290858 1.615025,13.126374 -2.977407,-0.19511 -8.286188,-0.53413 -13.890453,-0.8507 z" />
   </g>
   
   <g id="symbol-willpower">
      <path fill="currentColor" d="M 38.915003,0.79999535 C 22.85283,2.0355947 16.795752,5.3411354 16.795752,5.3411354 l -2.301544,4.337614 C 18.267318,8.30727 27.046519,5.6087262 40.68239,4.1264106 Z m 23.769993,0 -1.767387,3.32641525 C 74.55348,5.6087262 83.332681,8.30727 87.105791,9.6787494 l -2.301544,-4.337614 c 0,0 -6.057078,-3.3055407 -22.119251,-4.54114005 z M 42.206024,6.9950918 C 29.082286,8.3270711 20.34102,10.853102 16.222176,12.278743 c 2.882091,4.860311 7.399572,15.032803 8.61087,31.14844 0.560363,7.456719 -0.513223,15.579404 -1.813241,21.917334 L 50.799999,90.531151 78.580996,65.344517 C 77.280938,59.006587 76.206549,50.883902 76.766953,43.427183 77.97825,27.311546 82.495732,17.139054 85.377823,12.278743 81.25902,10.853061 72.517712,8.3270711 59.393975,6.9950918 L 58.21304,9.2177966 50.799999,9.0118565 43.386959,9.2177966 Z m -29.63124,6.2996732 -3.0770359,5.799306 c 0,0 6.1929709,6.218135 7.5312929,24.030634 0.860418,11.452576 -3.706922,23.698396 -3.706922,23.698396 l 4.608713,4.177528 C 19.67601,65.047065 22.61412,54.10649 21.819562,43.54061 20.441823,25.194643 14.911256,16.591537 12.574784,13.294765 Z m 76.450431,0 c -2.336472,3.296772 -7.867039,11.899878 -9.244778,30.245845 -0.794558,10.56588 2.143552,21.506455 3.888729,27.460019 l 4.608713,-4.177528 c 0,0 -4.567339,-12.24582 -3.706921,-23.698396 1.338322,-17.812499 7.531294,-24.030634 7.531294,-24.030634 z M 22.266839,68.734484 c -0.42193,1.759346 -0.840339,3.306336 -1.210701,4.53551 L 50.799999,100.8 80.54386,73.269994 c -0.370403,-1.229174 -0.78877,-2.776164 -1.2107,-4.53551 l -28.533161,25.8672 z" />
   </g>
   
   <g id="symbol-lore">
      <path fill="currentColor" d="m 50.799999,0.8000005 -0.455321,2.065836 C 44.984717,27.187153 39.569959,51.479434 15.838453,66.834368 32.027115,74.135397 43.45214,85.149999 50.799999,100.8 58.1479,85.149999 69.573296,74.135397 85.761546,66.834368 62.03004,51.479434 56.615282,27.187153 51.255321,2.8658365 Z m 0,19.4943215 0.0539,0.190656 c 5.136105,17.51924 12.120007,33.662348 27.080318,45.783858 -11.617492,6.36775 -20.473538,14.769174 -27.122149,26.884833 -0.0041,-0.007 -0.008,-0.0131 -0.01207,-0.0201 -0.0041,0.007 -0.008,0.0131 -0.01207,0.0201 C 44.13932,81.03801 35.283316,72.636586 23.665783,66.268836 38.625724,54.147326 45.609955,38.004218 50.746101,20.484978 Z m 0.08608,29.245906 c -3.027031,6.659443 -5.989125,11.194743 -10.848858,16.054475 4.193599,2.768865 7.555835,5.791534 10.848858,10.207713 C 54.179102,71.386237 57.54058,68.363568 61.734138,65.594703 56.874405,60.73497 53.913069,56.19963 50.886079,49.540228 Z" />
   </g>
      
   </defs><g
     id="layer7"
     style="display:inline"><g
       id="layer3"
       style="display:inline"><rect
         style="fill:#ffffff;fill-opacity:1;stroke:none;stroke-width:0.1;stroke-linecap:round;stroke-linejoin:miter;stroke-dasharray:none;stroke-opacity:1;paint-order:markers stroke fill"
         id="rect2"
         width="63.5"
         height="88.900002"
         x="-5.2735594e-15"
         y="-7.6293946e-07" /></g><g
       id="layer2"
       style="display:inline"><rect
         style="display:inline;fill-opacity:1;stroke:none;stroke-width:0.1;stroke-linecap:round;stroke-linejoin:miter;stroke-dasharray:none;stroke-opacity:1;paint-order:markers stroke fill"
         id="ink-color-bar"
         width="57.992001"
         height="9.2271614"
         x="2.7779071"
         y="47.021709" /><path
         style="fill:#000000;fill-opacity:1;stroke:#000000;stroke-width:0.2;stroke-linecap:square;stroke-linejoin:miter;stroke-dasharray:none;stroke-opacity:1;paint-order:markers stroke fill"
         d="M 2.8461355,47.022424 H 60.622313"
         id="path2" /><path
         style="display:inline;fill:#727272;fill-opacity:1;stroke:#737373;stroke-width:0.15;stroke-linecap:square;stroke-linejoin:miter;stroke-dasharray:none;stroke-opacity:1;paint-order:markers stroke fill"
         d="M 2.7994562,56.252892 H 60.682369"
         id="path4" /><path
         style="fill:#000000;fill-opacity:1;stroke:#000000;stroke-width:0.2;stroke-linecap:square;stroke-linejoin:miter;stroke-dasharray:none;stroke-opacity:1;paint-order:markers stroke fill"
         d="M 2.8528114,59.14687 H 60.622325"
         id="path3" /><rect
         style="display:inline;fill:none;stroke:#737373;stroke-width:0.15;stroke-linecap:round;stroke-linejoin:miter;stroke-dasharray:none;stroke-opacity:1;paint-order:markers stroke fill"
         id="rect1"
         width="57.981979"
         height="79.54496"
         x="2.7525921"
         y="3.1664252"
         ry="0" /></g><g
       id="layer6"
       style="display:inline"><path
         id="path32"
         style="display:inline;fill:#ababab;fill-opacity:1;stroke:none;stroke-width:0.999997"
         d="m 6.4471517,3.4736898 c -0.020312,0.00406 -0.04329,0.024033 -0.060978,0.034623 L 6.251298,3.5889282 C 6.1034767,3.6776165 5.9552157,3.7648203 5.8073975,3.8535116 5.3136203,4.1497752 4.817537,4.4429855 4.3237671,4.7392456 4.1565598,4.8395698 3.9886814,4.938644 3.8214722,5.0389689 c -0.046633,0.027983 -0.093409,0.055734 -0.1400432,0.083716 -0.015524,0.0093 -0.045569,0.020091 -0.055294,0.035657 -0.00824,0.013178 -0.00258,0.042206 -0.00258,0.057361 v 0.142627 0.5369181 1.8215942 0.4914429 0.1322917 c 0,0.014187 -0.00498,0.039716 0.00258,0.052193 0.013921,0.022956 0.064365,0.040507 0.087333,0.05426 0.076316,0.045695 0.1530283,0.090742 0.2299601,0.1353923 0.2680596,0.1555767 0.5337398,0.3153482 0.8009847,0.4723226 0.424243,0.2491929 0.8497983,0.4967909 1.271757,0.749825 0.1069677,0.064146 0.2145865,0.1270452 0.322461,0.1896525 0.027458,0.01593 0.054903,0.032309 0.082166,0.048576 0.00969,0.0057 0.022129,0.0162 0.034107,0.01344 0.020914,-0.0048 0.042485,-0.024 0.060978,-0.03462 0.047016,-0.026995 0.09341,-0.05503 0.1400432,-0.082683 0.1486938,-0.088169 0.2979456,-0.1754878 0.4470006,-0.26304 0.4991816,-0.2932101 0.9995394,-0.5843865 1.4960327,-0.8821167 0.166687,-0.099957 0.335604,-0.1961475 0.502295,-0.296106 0.042956,-0.025757 0.086753,-0.050206 0.1297078,-0.075964 0.012411,-0.00744 0.040024,-0.017759 0.045992,-0.031523 0.00714,-0.016371 0.00155,-0.044813 0.00155,-0.062528 V 8.1845133 7.6822184 5.92677 5.3665975 5.2182861 c 0,-0.015438 0.00604,-0.046143 -0.00258,-0.059428 -0.00714,-0.01105 -0.026183,-0.018196 -0.037207,-0.024805 -0.030767,-0.018463 -0.06164,-0.036478 -0.092501,-0.054777 C 9.0402603,5.016424 8.9345905,4.9530249 8.8289185,4.889624 8.4461073,4.6599465 8.0619191,4.4330632 7.6791178,4.203361 7.3745928,4.0206282 7.0689833,3.8398568 6.764445,3.6571411 6.6861916,3.6101878 6.6080788,3.5617754 6.5288005,3.5165812 6.5101016,3.5059201 6.4689536,3.4693364 6.4471517,3.4736898 Z m 0.00258,0.4330485 c 0.024159,-0.00121 0.06671,0.035685 0.087333,0.048059 0.074839,0.044896 0.1499615,0.088944 0.2247925,0.1338419 0.2816192,0.1689708 0.5643251,0.3364253 0.8459432,0.5053955 0.3115853,0.1869497 0.624277,0.3716734 0.9358602,0.5586223 0.086287,0.051772 0.1724886,0.1034604 0.2588989,0.1550293 l 0.071314,0.042375 c 0.00902,0.00538 0.023209,0.01098 0.028939,0.020154 0.0115,0.018402 0.0031,0.064798 0.0031,0.0863 v 0.2273763 0.8433594 1.1684041 0.3384806 0.097669 c 0,0.013208 0.00352,0.032566 -0.00155,0.044958 -0.00555,0.013716 -0.028721,0.021991 -0.040824,0.028939 -0.036363,0.020876 -0.07236,0.042327 -0.1085205,0.063562 C 8.6156606,8.3511315 8.4762791,8.4329269 8.3374756,8.5157593 7.8911699,8.7820976 7.440313,9.040965 6.9944051,9.307959 6.8636876,9.3862292 6.7329895,9.4650467 6.6006307,9.5405029 6.5650857,9.5607629 6.5302357,9.5822559 6.494694,9.6025149 6.482698,9.6093449 6.466337,9.6241019 6.452319,9.6252529 6.42853,9.6272029 6.385183,9.5903469 6.364986,9.5782269 6.2912732,9.5340159 6.217096,9.4901006 6.1427775,9.4469686 5.8534678,9.2790609 5.5659644,9.1075223 5.2782308,8.9369222 4.9756426,8.7575138 4.674318,8.5761775 4.3692424,8.4010376 4.2813901,8.3506009 4.1948557,8.2973753 4.1072428,8.2465251 c -0.02563,-0.014871 -0.05107,-0.029718 -0.076481,-0.044958 -0.00956,-0.00575 -0.025817,-0.01108 -0.032039,-0.020671 -0.011557,-0.017823 -0.00258,-0.065251 -0.00258,-0.0863 V 7.8703206 7.0212769 5.8502889 5.5118083 5.4167236 c 0,-0.013032 -0.00354,-0.032268 0.00155,-0.044442 0.00562,-0.013407 0.028977,-0.021828 0.040824,-0.028939 0.036136,-0.021675 0.072279,-0.043619 0.1085205,-0.065112 C 4.2855922,5.1960786 4.4238779,5.1135811 4.561999,5.0307005 5.0152212,4.7587414 5.4704374,4.4897609 5.923673,4.2178302 6.0495385,4.1423142 6.175382,4.0672256 6.3014278,3.9920042 c 0.034338,-0.020495 0.069058,-0.0404 0.1033528,-0.060978 0.012316,-0.00739 0.030258,-0.023564 0.044958,-0.024288 z" /><path
         id="inkable"
         style="display:none;fill:#ababab;fill-opacity:1;stroke:none;stroke-width:0.999997"
         d="m 6.3448324,2.1259684 c -0.069914,0.00151 -0.1398935,0.00451 -0.2098064,0.0093 -0.068037,0.00466 -0.1357286,0.011333 -0.2036051,0.018604 -0.032863,0.00352 -0.075002,0.00196 -0.1059367,0.013953 -0.021524,0.00834 -0.040359,0.029819 -0.057878,0.044442 -0.03923,0.032748 -0.077917,0.066489 -0.116272,0.1002522 C 5.5173428,2.430469 5.3860965,2.5514376 5.2627279,2.6804565 4.8618002,3.0997457 4.5186605,3.5579162 4.2653727,4.0814046 4.2038097,4.2086417 4.1531272,4.3399593 4.104659,4.4725952 4.0779105,4.5457906 4.043786,4.6281968 4.0333455,4.7056559 L 4.2074951,4.6023031 4.5831828,4.3780273 5.6776896,3.7243205 6.0874837,3.479891 6.2326945,3.3930745 6.3024577,3.3501831 6.3474162,3.2566488 6.4497355,3.0292725 c 0.040766,0.070105 0.070344,0.1506655 0.1033529,0.2247924 0.013175,0.02959 0.024325,0.068586 0.044442,0.094051 0.013131,0.016625 0.040431,0.026948 0.058394,0.037724 l 0.1322916,0.079065 c 0.1522241,0.091333 0.3051161,0.1815096 0.4573365,0.2728515 0.051917,0.031151 0.1041493,0.061871 0.1560628,0.093018 0.020551,0.012337 0.04755,0.036141 0.071314,0.040308 0.015257,0.00265 0.034978,-0.00422 0.050126,-0.00672 0.034281,-0.00562 0.068942,-0.010191 0.1033529,-0.014986 0.1063847,-0.014823 0.2131196,-0.024462 0.3198771,-0.034623 0.2978444,-0.028345 0.6073147,-0.017292 0.9038208,0.021704 0.3632778,0.047776 0.7196282,0.1386939 1.0578166,0.2806031 0.1114693,0.046771 0.2212873,0.098034 0.3276283,0.155546 0.05157,0.027898 0.10231,0.063137 0.156063,0.0863 -0.01025,-0.027994 -0.03077,-0.053811 -0.04651,-0.079065 C 10.312178,4.2269857 10.277319,4.1755592 10.242786,4.1237793 10.099936,3.9096047 9.9320485,3.7121325 9.7544434,3.5263997 9.0266655,2.765315 8.0211969,2.2660657 6.9732178,2.1538737 6.7642662,2.1315036 6.5545748,2.1214322 6.3448324,2.1259684 Z M 5.4715007,2.2308716 C 5.375224,2.2387396 5.2731428,2.2766159 5.1805623,2.3032186 4.9598123,2.3666515 4.7444715,2.4463431 4.5356405,2.5419637 3.5761262,2.9813116 2.7790662,3.7579044 2.3192383,4.7082397 2.191764,4.9716917 2.0893193,5.2452833 2.012797,5.527828 1.991497,5.606484 1.972035,5.6856469 1.955953,5.7655396 c -0.00645,0.032023 -0.018991,0.06795 -0.018604,0.100769 2.189e-4,0.019063 0.011025,0.039971 0.017053,0.057878 0.014635,0.043476 0.030597,0.086683 0.046509,0.1297078 0.057089,0.1544047 0.1225483,0.3052351 0.1912028,0.4547526 0.2153334,0.4689659 0.4941904,0.9141459 0.8273396,1.3084473 0.089598,0.1060454 0.1834918,0.208814 0.2816366,0.306958 0.045037,0.045037 0.090496,0.098154 0.1426269,0.1348755 V 7.3096313 7.0507324 c 0,-0.025557 0.010116,-0.077928 -0.00258,-0.1002523 C 3.4264039,6.9245841 3.3734509,6.9036331 3.3486359,6.8874351 3.2925389,6.8508171 3.23546,6.8151911 3.1791372,6.7789146 3.1489712,6.7594846 3.1176292,6.7327266 3.0840522,6.7200036 3.1594182,6.6557676 3.256204,6.6053772 3.3403673,6.5530887 c 0.024039,-0.014932 0.047331,-0.03097 0.071314,-0.045992 0.00941,-0.00592 0.025742,-0.012525 0.030489,-0.023254 0.010124,-0.022884 0.00155,-0.066459 0.00155,-0.091467 V 6.1675822 5.3877848 5.1521403 c 0,-0.023452 -0.00935,-0.07158 0.00258,-0.091984 0.0127,-0.021736 0.057748,-0.03736 0.079065,-0.050126 L 3.7289714,4.8885905 c 0.022091,-0.013256 0.067404,-0.030168 0.081132,-0.052193 0.00692,-0.011097 0.00799,-0.028198 0.010852,-0.040824 0.007,-0.030909 0.014016,-0.06227 0.021704,-0.093018 0.023795,-0.095167 0.050815,-0.1902275 0.083716,-0.28267 C 4.0312347,4.125258 4.1650532,3.8439246 4.3273844,3.5765259 4.5373726,3.2306244 4.7921425,2.9175489 5.067391,2.6220622 5.1507857,2.5325352 5.2393678,2.4465409 5.3288737,2.3631632 5.3745509,2.3206125 5.4336544,2.2803577 5.4715007,2.2308716 Z m 2.8215332,1.7476969 c -0.1211607,1.736e-4 -0.2426152,0.00773 -0.3627686,0.01602 -0.070999,0.0049 -0.1428386,0.020085 -0.2139404,0.020671 0.014551,0.016894 0.038918,0.026867 0.057878,0.038241 l 0.1162719,0.069763 c 0.082827,0.049698 0.167497,0.1140994 0.2563152,0.1519287 0.029779,0.012681 0.066731,0.016426 0.098185,0.024288 0.06296,0.015742 0.1256028,0.032415 0.1875854,0.051676 0.2788285,0.08665 0.5457144,0.2083346 0.7932333,0.3632853 0.5130347,0.3211682 0.9202253,0.7901073 1.1968263,1.3260173 0.163675,0.3171199 0.281016,0.6560484 0.366386,1.002006 0.05905,0.2392431 0.111828,0.4887779 0.131258,0.7348389 h 0.0026 c 0.0025,-0.03008 0.01312,-0.059803 0.01912,-0.0894 0.02058,-0.1012845 0.05084,-0.2086167 0.05529,-0.3121256 h 0.0026 l 0.0052,0.01602 c 0.03354,-0.015632 0.06618,-0.058537 0.0925,-0.084749 0.04847,-0.048236 0.101628,-0.092896 0.153479,-0.1374593 0.118804,-0.1021041 0.245009,-0.1973454 0.377755,-0.280603 0.07017,-0.044007 0.142943,-0.089557 0.219624,-0.1214396 -0.02492,-0.020646 -0.06137,-0.033126 -0.08992,-0.048576 -0.05247,-0.028359 -0.103192,-0.059558 -0.153479,-0.091467 -0.145258,-0.092177 -0.280196,-0.20091 -0.409794,-0.3136759 -0.04526,-0.03937 -0.08988,-0.080066 -0.132291,-0.1224731 -0.01662,-0.016619 -0.04172,-0.034869 -0.05271,-0.055811 -0.01645,-0.031375 -0.01367,-0.086289 -0.0186,-0.1214396 -0.01107,-0.078741 -0.02636,-0.1573657 -0.04289,-0.2351278 -0.05786,-0.2721198 -0.138503,-0.5381302 -0.243396,-0.795817 -0.02685,-0.065949 -0.05557,-0.1311683 -0.08527,-0.1958537 -0.01381,-0.030068 -0.0259,-0.071453 -0.04754,-0.096635 -0.0137,-0.015935 -0.03698,-0.027525 -0.05426,-0.039274 -0.03667,-0.024973 -0.07309,-0.049081 -0.110588,-0.072864 C 10.26762,4.4896724 10.122242,4.4089995 9.9714844,4.3397868 9.4780175,4.1132323 8.9540957,4.0047899 8.4139567,3.9811523 c -0.040238,-0.00176 -0.080536,-0.00264 -0.1209228,-0.00258 z m 1.1627197,1.1234457 v 1.002006 0.2723348 c 0,0.027316 -0.011051,0.08421 0.00258,0.1080037 0.00565,0.00994 0.019699,0.015614 0.028939,0.021704 0.022731,0.014979 0.046357,0.02918 0.069246,0.043925 0.085742,0.055226 0.1829696,0.105012 0.2614828,0.1700155 -0.028243,0.009 -0.053936,0.03245 -0.079065,0.048059 -0.06405,0.039794 -0.1267793,0.082458 -0.190686,0.1224732 -0.021353,0.013365 -0.042288,0.027332 -0.063562,0.040824 -0.00902,0.00568 -0.023008,0.011267 -0.027389,0.021704 -0.00645,0.015385 -0.00155,0.041338 -0.00155,0.057878 V 7.143233 7.6005695 c 0,0.2521141 -0.011008,0.5067681 0,0.75861 0.00417,0.095185 0.022181,0.1903426 0.026355,0.2857707 0.00941,0.2142152 -0.00644,0.4301942 -0.037724,0.642338 -0.037978,0.257852 -0.1000112,0.5139693 -0.1824178,0.7611938 -0.030177,0.09053 -0.061925,0.180468 -0.095601,0.269751 -0.017597,0.04665 -0.04277,0.09416 -0.05426,0.142627 0.057527,-0.02862 0.1107744,-0.07876 0.1612305,-0.118339 0.103953,-0.08152 0.20461,-0.166826 0.3012736,-0.256832 0.3795193,-0.3533836 0.6989183,-0.7679554 0.9410273,-1.2267984 0.07272,-0.1378072 0.13645,-0.2792283 0.195854,-0.42323 0.018,-0.043602 0.03556,-0.087251 0.05116,-0.1317749 0.0062,-0.017659 0.0163,-0.037021 0.01809,-0.05581 0.0052,-0.055728 -0.007,-0.1159021 -0.01085,-0.1715658 -0.0086,-0.125448 -0.02287,-0.2509058 -0.03927,-0.3756877 C 10.668556,7.2295051 10.55479,6.7619094 10.362158,6.3262288 10.205552,5.9720312 9.996439,5.6363775 9.7280884,5.3557454 9.6740345,5.2992188 9.6190532,5.2445741 9.5616903,5.1914144 9.5290335,5.1611523 9.4944387,5.1243478 9.4557536,5.1020142 Z M 1.8546672,6.1753337 C 1.6180901,6.4119115 1.348187,6.6079541 1.0536825,6.7649618 c 0.017937,0.01486 0.042988,0.022735 0.063562,0.03359 0.038504,0.020321 0.076469,0.041998 0.1136881,0.064596 0.1152818,0.069985 0.2249315,0.1493569 0.3302124,0.2335774 0.083085,0.066464 0.1611247,0.1379714 0.2408122,0.2082561 0.029482,0.026004 0.05676,0.07015 0.092501,0.086816 l 0.00775,-0.01602 h 0.00258 c 5.274e-4,0.063753 0.019708,0.130166 0.031006,0.1927531 0.027239,0.1509489 0.065143,0.29968 0.1074869,0.4470011 0.016843,0.058589 0.034859,0.1172557 0.055294,0.1746664 0.00744,0.020918 0.011294,0.050405 0.024805,0.068213 0.012839,0.016927 0.0388,0.028112 0.056327,0.039791 0.042055,0.028037 0.084284,0.056378 0.127124,0.083199 0.1405315,0.087987 0.2814964,0.1745973 0.4258138,0.2563151 0.4406669,0.2495198 0.9111831,0.4572387 1.4035319,0.5803263 0.2293776,0.057346 0.4715148,0.1033529 0.7084839,0.1033529 V 9.318811 C 4.7375462,9.2617887 4.6351272,9.1952818 4.5304728,9.1338094 4.3434596,9.0239614 4.1567974,8.9134457 3.9697835,8.803597 3.8507034,8.7336521 3.731141,8.6637817 3.6126994,8.5927572 3.5607084,8.561576 3.4991145,8.5352405 3.4519857,8.4971558 3.3845087,8.4426249 3.3224529,8.3766944 3.2587158,8.3173218 3.0204955,8.0954184 2.8078722,7.8431917 2.6174113,7.5793823 2.4016384,7.2805134 2.2207395,6.9619499 2.0562052,6.6326701 2.0044803,6.5291593 1.9588658,6.4220698 1.9140951,6.3153768 1.9012138,6.2846787 1.8887383,6.253784 1.8763713,6.222876 1.8701441,6.207298 1.8659706,6.1878956 1.8546672,6.1753337 Z M 2.2381063,8.549349 c 0.00962,0.040525 0.034088,0.081943 0.052193,0.1193725 0.033486,0.069211 0.067568,0.1378666 0.1028361,0.206189 0.1540599,0.2984478 0.3503114,0.5776546 0.5684407,0.8325073 0.3975072,0.4644322 0.8895288,0.8493922 1.4366049,1.1229292 0.8745769,0.437289 1.8830505,0.581021 2.8447875,0.413928 0.4123917,-0.07164 0.8047306,-0.203412 1.1844239,-0.377755 0.099188,-0.04555 0.1963217,-0.09755 0.2909383,-0.151929 0.035559,-0.02043 0.086913,-0.03939 0.1152384,-0.06925 0.031128,-0.0328 0.046344,-0.09819 0.064079,-0.139526 0.049309,-0.114889 0.0949,-0.231083 0.1369426,-0.348816 0.1315797,-0.3684528 0.2300191,-0.755915 0.2568318,-1.147217 0.00962,-0.1397453 0.00587,-0.2782966 0.0031,-0.4180624 -0.031535,0.00999 -0.061249,0.034187 -0.089917,0.050643 C 9.1380701,8.6805615 9.0721621,8.7205446 9.0061686,8.759672 8.8107694,8.8755272 8.6150443,8.9900485 8.4196411,9.1059041 8.0024909,9.3532372 7.584649,9.5992568 7.1664876,9.8448771 c -0.1322884,0.077703 -0.265298,0.1551909 -0.396875,0.2340939 -0.03863,0.02316 -0.077646,0.04557 -0.1162719,0.06873 -0.017377,0.01044 -0.040208,0.01931 -0.05426,0.03411 -0.02244,0.02363 -0.033559,0.06721 -0.047026,0.09664 -0.033487,0.07315 -0.061902,0.152695 -0.1023194,0.222209 -0.029533,-0.07611 -0.066112,-0.150865 -0.100769,-0.224792 -0.013228,-0.02823 -0.023534,-0.07165 -0.045475,-0.09405 -0.021053,-0.02149 -0.057689,-0.0357 -0.083716,-0.05064 -0.051457,-0.02952 -0.1023425,-0.06038 -0.153479,-0.09043 C 5.8942287,9.939696 5.722591,9.8374014 5.5505656,9.7363566 5.4535486,9.6793705 5.3577234,9.6213257 5.260144,9.5653076 5.2246691,9.5449417 5.1808167,9.50588 5.1407715,9.4970947 c -0.01579,-0.00347 -0.036678,0.0021 -0.05271,0.00362 -0.034042,0.00327 -0.068685,0.00418 -0.1028361,0.00568 C 4.8894034,9.5105665 4.7922629,9.505205 4.6968709,9.498645 4.4025239,9.478475 4.1108144,9.4087414 3.8297404,9.3213949 3.4479666,9.2027546 3.0834159,9.0325104 2.7326497,8.8423543 2.6171044,8.7797154 2.5039249,8.7121134 2.3915853,8.6439168 2.3410397,8.6132315 2.2916171,8.5743635 2.2381063,8.549349 Z" /><g
         id="g20"
         style="display:inline;stroke-width:5.55163"
         transform="matrix(0.18012716,0,0,0.18012716,0.93778745,-2.1862504)"><path
           class="cls-1"
           d="m 30.607987,41.583824 c -3.636486,0 -5.254069,3.532981 -5.254069,7.891118 0,4.358138 1.583161,8.038545 5.254069,7.891119 3.670882,0.147426 5.254123,-3.532981 5.254123,-7.891119 0,-4.358137 -1.617636,-7.891118 -5.254123,-7.891118 z m 0,14.0961 c -2.27195,0.115914 -3.251835,-2.77786 -3.251835,-6.204532 0,-3.426671 1.001157,-6.204532 3.251835,-6.204532 2.250678,0 3.251835,2.777861 3.251835,6.204532 0,3.426672 -0.979884,6.320446 -3.251835,6.204532 z"
           id="ink-cost-0"
           style="display:none;fill:#000000;fill-opacity:1" /><polygon
           class="cls-1"
           points="47.4607,74.5461 44.3858,77.703 58.2992,77.703 55.1066,74.6292 55.1066,18.2469 47.3776,18.2469 42.6529,26.0946 47.5438,26.1777 "
           id="ink-cost-1"
           style="display:none;fill:#000000"
           transform="matrix(0.26458333,0,0,0.26458333,16.807379,36.783711)" /><path
           class="cls-1"
           d="m 29.413931,55.511151 4.705164,-7.043658 -0.001,-1.85e-4 c 0.121206,-0.185235 0.226854,-0.379359 0.315039,-0.582216 0.247068,-0.568245 0.366316,-1.199726 0.366316,-1.861131 0,-2.449804 -2.057638,-4.412404 -4.95009,-4.412404 -1.374563,0 -2.621518,0.299482 -3.555841,1.033119 v 2.555081 c 0.440553,-1.015656 1.654302,-1.644491 3.086307,-1.644491 1.803559,0 3.111817,1.139375 3.111817,2.567596 0,0.04056 -0.0048,0.08009 -0.0069,0.120227 4.5e-4,0.004 0.0019,0.0076 0.0023,0.0117 0.01386,0.15105 -0.03376,0.366606 -0.123402,0.623146 -0.005,0.0145 -0.01077,0.02871 -0.01611,0.0431 -0.373116,1.032854 -1.411367,2.709386 -2.115132,3.773885 4.23e-4,8.99e-4 7.93e-4,0.0017 0.0012,0.0026 l -4.708049,6.64509 h 9.273884 v -2.697401 l -1.046665,0.835581 -4.338823,0.03035 z"
           id="ink-cost-2"
           style="display:none;fill:#000000" /><path
           class="cls-1"
           d="m 32.787444,49.354604 c 1.357312,-0.752951 1.982629,-2.072587 1.982629,-3.549438 0,-2.328334 -1.955615,-4.193646 -4.704636,-4.193646 -1.306407,0 -2.491528,0.284639 -3.379549,0.981895 v 2.428399 c 0.41873,-0.96528 1.572286,-1.562947 2.933303,-1.562947 1.714129,0 2.957512,1.082887 2.957512,2.440305 0,1.357419 -1.243383,2.475389 -2.957512,2.475389 -0.166529,0 -0.329856,-0.01071 -0.489215,-0.03074 v 1.874467 c 0.151977,-0.01707 0.306996,-0.02635 0.464767,-0.02635 1.871848,0 3.279643,1.245844 3.279643,2.773072 0,1.527228 -1.386893,2.663401 -3.258741,2.663401 -1.237694,0 -2.50862,-0.539088 -3.100201,-1.347364 v 2.052373 c 0.920882,0.822854 2.393393,1.009227 3.841352,1.009227 2.789264,0 4.789302,-1.728947 4.789302,-4.079955 0,-1.608084 -0.797454,-3.183969 -2.358654,-3.908081 z"
           id="ink-cost-3"
           style="display:none;fill:#000000" /><path
           class="cls-1"
           d="M 35.357771,53.581207 V 51.960052 H 33.249677 V 41.666967 h -1.980935 l -6.598523,10.293085 v 1.621155 h 6.598523 v 2.523437 L 30.431759,57.2872 h 3.675353 L 33.249677,56.075725 V 53.581207 Z M 27.01612,51.960052 31.268742,44.51473 v 7.445322 z"
           id="ink-cost-4"
           style="display:none;fill:#000000" /><path
           class="cls-1"
           d="m 29.968521,47.144936 c -0.656008,-0.02109 -1.252167,-0.0094 -1.816047,0.263366 l 0.831956,-4.115118 4.401979,0.04233 0.63492,0.719561 0.105807,-2.388102 h -6.950604 l -1.023963,7.267125 0.325887,0.287073 0.124433,0.04077 c 0.653732,-0.447067 1.55538,-0.470853 2.447025,-0.470853 2.138945,0 3.298746,1.382422 3.298746,3.268213 0,1.885791 -1.1802,3.213285 -3.319119,3.217307 -2.243348,0.0042 -2.672846,-0.922073 -3.261968,-1.24296 l -0.01413,2.423875 c 1.820175,0.857594 2.579264,0.864314 4.185814,0.811371 2.825327,-0.09311 4.632299,-2.187655 4.632299,-5.093415 0,-3.041173 -1.312148,-4.924716 -4.603036,-5.030549 z"
           id="ink-cost-5"
           style="display:none;fill:#000000" /><path
           class="cls-1"
           d="m 25.366824,52.697565 c 0,2.455863 2.152068,4.446747 4.806712,4.446747 2.654644,0 4.806712,-1.990884 4.806712,-4.446747 0,-2.455862 -2.152068,-4.446746 -4.806712,-4.446746 -0.443838,0 -1.002585,0.144092 -1.406181,0.354462 l 4.387427,-6.795426 h -3.580289 l 0.490564,0.777901 c -1.070504,1.691349 -3.324886,5.696215 -4.050189,7.133935 -0.855239,1.695264 -0.648044,2.975901 -0.648044,2.975901 z m 7.495937,-0.06173 c 0,1.60946 -1.220364,2.914174 -2.72579,2.914174 -1.505426,0 -2.725817,-1.304714 -2.725817,-2.914174 0,-1.60946 1.220417,-2.914174 2.725817,-2.914174 1.5054,0 2.72579,1.304714 2.72579,2.914174 z"
           id="ink-cost-6"
           style="display:none;fill:#000000" /><polygon
           class="cls-1"
           points="44.7097,73.3799 46.8686,76.5771 33.3154,76.5771 57.3034,26.9632 33.9151,26.8433 31.6589,29.362 31.6589,19.3728 69.2933,19.3728 "
           id="ink-cost-7"
           style="display:none;fill:#000000"
           transform="matrix(0.26458333,0,0,0.26458333,18.067468,36.783711)" /><path
           class="cls-1"
           d="m 33.010351,49.175021 c 1.254628,-0.737156 2.089679,-2.030836 2.089679,-3.507739 0,-2.295393 -2.011124,-4.156155 -4.49199,-4.156155 -2.480865,0 -4.491989,1.860762 -4.491989,4.156155 0,1.47693 0.835077,2.77061 2.089705,3.507739 -1.602237,0.740384 -2.692664,2.1971 -2.692664,3.87432 0,2.426573 2.281078,4.393698 5.094922,4.393698 2.813844,0 5.094922,-1.967125 5.094922,-4.393698 0,-1.67722 -1.0904,-3.133936 -2.692638,-3.87432 z m -4.876324,-3.327347 c 0,-1.550802 1.107679,-2.80797 2.47404,-2.80797 1.366361,0 2.474039,1.257168 2.474039,2.80797 0,1.550802 -1.107678,2.80797 -2.474039,2.80797 -1.366361,0 -2.47404,-1.257168 -2.47404,-2.80797 z m 2.47404,10.02956 c -1.484498,0 -2.687876,-1.355195 -2.687876,-3.026912 0,-1.671717 1.203378,-3.026913 2.687876,-3.026913 1.484497,0 2.687902,1.355196 2.687902,3.026913 0,1.671717 -1.203405,3.026912 -2.687902,3.026912 z"
           id="ink-cost-8"
           style="display:none;fill:#000000" /><path
           class="cls-1"
           d="m 34.958176,46.256602 c 0,-2.455863 -2.152068,-4.446747 -4.806712,-4.446747 -2.654644,0 -4.806712,1.990884 -4.806712,4.446747 0,2.455862 2.152068,4.446745 4.806712,4.446745 0.443838,0 1.002585,-0.144092 1.406181,-0.354462 l -4.387427,6.795426 h 3.580289 L 30.259943,56.36641 c 1.070504,-1.691349 3.324886,-5.696215 4.050189,-7.133934 0.855239,-1.695265 0.648044,-2.975901 0.648044,-2.975901 z m -7.495937,0.06173 c 0,-1.609461 1.220364,-2.914174 2.72579,-2.914174 1.505426,0 2.725817,1.304713 2.725817,2.914174 0,1.60946 -1.220417,2.914173 -2.725817,2.914173 -1.5054,0 -2.72579,-1.304713 -2.72579,-2.914173 z"
           id="ink-cost-9"
           style="display:none;fill:#000000" /><path
           id="ink-cost-10"
           style="display:none;fill:#000000;fill-opacity:1;stroke-width:5.55162"
           class="cls-1"
           d="m 33.828934,41.651144 c -3.60551,0 -5.208913,3.503973 -5.208913,7.824976 0,4.321014 1.569277,7.96883 5.208913,7.822656 3.639609,0.146174 5.208905,-3.501642 5.208905,-7.822656 0,-4.321003 -1.603403,-7.824976 -5.208905,-7.824976 z m -9.816077,0.02786 -1.24065,2.058474 1.282469,0.0232 -0.02091,12.687716 -0.806193,0.827102 h 3.649949 L 26.0388,56.469303 V 41.678975 Z m 9.816077,1.644917 c 2.231508,0 3.224783,2.754701 3.224783,6.152179 0,3.397487 -0.972187,6.267112 -3.224783,6.152179 -2.252594,0.114933 -3.224781,-2.754692 -3.224781,-6.152179 0,-3.397478 0.993275,-6.152179 3.224781,-6.152179 z" /><path
           id="ink-cost-11"
           style="display:none;fill:#000000;stroke-width:5.55163"
           class="cls-1"
           d="m 25.061435,41.612198 -1.250835,2.077074 1.296737,0.02008 -0.02295,12.798102 -0.814764,0.834846 h 3.68078 L 27.10695,56.530406 V 41.612198 Z m 8.761578,0 -1.247965,2.077074 1.293867,0.02008 -0.02295,12.798102 -0.814763,0.834846 H 36.71485 L 35.868529,56.530406 V 41.612198 Z" /><path
           id="ink-cost-12"
           style="display:none;fill:#000000"
           class="cls-1"
           d="m 47.376733,18.2494 -4.727563,7.850357 4.890208,0.0759 -0.0759,48.370778 -3.079422,3.155323 H 58.295669 L 55.107817,74.63318 V 18.2494 Z m 37.701231,0 c -5.195199,0 -9.914063,1.130691 -13.445363,3.903493 v 9.661143 c 1.665083,-3.8387 6.254803,-6.223902 11.667105,-6.223902 6.816602,0 11.764693,4.306516 11.764693,9.704516 0,0.153298 -0.02459,0.303709 -0.03253,0.455408 0.0017,0.01512 0.0093,0.02788 0.01084,0.04337 0.05238,0.570898 -0.127446,1.383338 -0.466251,2.352939 -0.0189,0.0548 -0.04488,0.108258 -0.06506,0.162645 -1.410202,3.9037 -5.331417,10.24613 -7.991316,14.269434 l 0.01084,0.01084 -17.804263,25.112468 H 103.7822 V 67.509306 l -3.957709,3.155323 -16.394668,0.119274 17.782577,-26.61965 v -0.01084 c 0.4581,-0.700101 0.84859,-1.42359 1.18189,-2.190293 0.9338,-2.147698 1.38791,-4.537331 1.38791,-7.03713 0,-9.259102 -7.772134,-16.676587 -18.704236,-16.676587 z"
           transform="matrix(0.26458333,0,0,0.26458333,11.498342,36.783711)" /></g></g><g
       id="layer8"
       style="display:inline"><path
         id="rarity-legendary"
         class="cls-1"
         d="m 31.906584,84.165616 c -0.204991,1.211182 -0.435015,2.40701 -1.134725,3.472199 h 2.26945 c -0.69971,-1.065189 -0.929735,-2.261017 -1.134725,-3.472199 z m -0.24061,0.146532 c -0.247042,0.791326 -0.706501,1.432002 -1.369887,1.93659 0.130036,0.386373 0.252921,0.752156 0.386658,1.149479 0.610053,-0.957216 0.817351,-2.012515 0.983229,-3.086069 z m 0.481219,0 c 0.165878,1.073554 0.373177,2.128853 0.98323,3.086069 0.133737,-0.397323 0.256622,-0.763106 0.386658,-1.149479 -0.663386,-0.504588 -1.122845,-1.145264 -1.369888,-1.93659 z m -0.809456,0.18663 -1.292656,0.954433 c 0.06032,0.199064 0.120895,0.397948 0.1812,0.597016 0.515378,-0.429335 0.907378,-0.919296 1.111456,-1.551449 z m 1.137694,0 c 0.204078,0.632153 0.596078,1.122114 1.111456,1.551449 0.06031,-0.199068 0.120885,-0.397952 0.1812,-0.597016 z"
         style="display:none;fill:none;fill-opacity:1;stroke:#737373;stroke-width:0.105833;stroke-linecap:butt;stroke-linejoin:miter;stroke-miterlimit:4;stroke-dasharray:none;stroke-opacity:1" /><path
         id="rarity-superrare"
         class="cls-1"
         d="m 31.992579,84.259714 v 2.601804 c 0.05967,0.01002 0.106175,0.01783 0.169515,0.02858 0.05527,-0.678549 0.189282,-1.325832 0.593037,-1.89931 -0.251643,-0.24117 -0.762552,-0.731081 -0.762552,-0.731081 z m -0.171903,0 c 0,0 -0.510861,0.489912 -0.762505,0.731081 0.403755,0.573479 0.53777,1.220762 0.593039,1.89931 0.06334,-0.01075 0.109796,-0.01857 0.169466,-0.02859 z m -0.8662,0.875493 c -0.271452,0.249232 -0.809099,0.743059 -0.809099,0.743059 0,0 0.801038,0.823179 1.179604,1.212422 0.139639,-0.04764 0.174347,-0.133146 0.163831,-0.245301 -0.03546,-0.380934 -0.09904,-0.756249 -0.228646,-1.117881 -0.07679,-0.213802 -0.16385,-0.42199 -0.30569,-0.592299 z m 1.904351,0 c -0.14184,0.170309 -0.228901,0.378497 -0.305689,0.592299 -0.129613,0.361632 -0.193235,0.736947 -0.228695,1.117881 -0.01052,0.112155 0.02423,0.197653 0.163879,0.245301 0.378566,-0.389243 1.17958,-1.212422 1.17958,-1.212422 0,0 -0.537622,-0.493827 -0.809075,-0.743059 z m -0.948032,1.876784 c -0.146486,-1.06e-4 -0.317316,0.06318 -0.428097,0.186457 0.139883,0.148807 0.33419,0.323999 0.428097,0.423692 0.104733,-0.103572 0.282401,-0.281746 0.421004,-0.416343 -0.152356,-0.130236 -0.274517,-0.193714 -0.421004,-0.193806 z"
         style="display:none;fill:none;fill-opacity:1;stroke:#737373;stroke-width:0.105833;stroke-dasharray:none;stroke-opacity:1" /><path
         class="cls-1"
         d="m 32.065396,87.642269 h -0.334284 c -0.06377,-0.690894 -0.335672,-1.285227 -0.849326,-1.75988 0.335647,-0.544528 0.663266,-1.076072 1.007461,-1.634452 0.342511,0.550128 0.673301,1.081474 1.012764,1.626672 -0.49839,0.486918 -0.80641,1.064624 -0.836615,1.76766 z m 0.924108,-1.620031 c -0.450545,0.463354 -0.691439,0.986871 -0.755962,1.612746 h 1.764365 c -0.342833,-0.548295 -0.673029,-1.076395 -1.008378,-1.612746 z m -3.175838,1.605634 h 1.718872 c -0.02622,-0.624858 -0.284678,-1.14062 -0.751402,-1.601347 -0.326033,0.539671 -0.638363,1.056596 -0.96747,1.601347 z"
         id="rarity-rare"
         style="display:none;fill:none;stroke:#737373;stroke-width:0.105833;stroke-dasharray:none;stroke-opacity:1" /><path
         id="rarity-uncommon"
         style="display:none;fill:none;stroke:#737373;stroke-width:0.105833;stroke-dasharray:none;stroke-opacity:1"
         class="cls-1"
         d="m 30.30788,84.231383 v 1.561903 c 0.583344,0.207189 1.105258,0.501157 1.499506,1.009406 v -1.974329 c -0.492905,-0.19635 -0.991673,-0.394941 -1.499506,-0.59698 z m 3.196285,0.0039 c -0.507588,0.202532 -0.998033,0.398116 -1.48531,0.592487 v 1.973652 c 0.388158,-0.511646 0.918005,-0.794557 1.48531,-1.009453 z m 0.0046,1.744665 c -0.198727,0.09496 -0.370513,0.167384 -0.533263,0.256904 -0.373228,0.205253 -0.691872,0.471602 -0.869064,0.875183 -0.06681,0.15258 -0.115274,0.313319 -0.07539,0.506949 0.505631,-0.201295 0.994839,-0.395656 1.477709,-0.587802 z m -3.204363,0.0356 v 1.009212 c 0.490213,0.195361 0.983839,0.391464 1.491427,0.593503 0.02493,-0.174448 -0.01304,-0.345276 -0.07853,-0.506115 -0.230893,-0.532417 -0.882137,-0.975733 -1.412894,-1.096592 z" /><path
         id="rarity-common"
         class="cls-1"
         d="m 31.918059,84.209618 c -0.07369,-6.96e-4 -0.147982,0.0025 -0.222481,0.01 -0.227963,0.023 -0.437148,0.09958 -0.634791,0.205328 -0.261852,0.140095 -0.470215,0.345722 -0.625383,0.596611 -0.110764,0.179115 -0.167747,0.381101 -0.149981,0.597166 0.01774,0.215724 0.102824,0.405154 0.240192,0.567832 0.16738,0.198185 0.463142,0.364725 0.623722,0.425045 0.160579,0.06032 0.235764,0.0808 0.235764,0.0808 0,0 -0.289918,-0.537559 -0.281699,-0.852855 v -5.54e-4 c 0.0035,-0.04918 0.0019,-0.198952 0.0238,-0.293878 0.02531,-0.109748 0.06802,-0.217074 0.114007,-0.320444 0.116518,-0.261856 0.284244,-0.481099 0.535726,-0.631479 0.233488,-0.139613 0.476839,-0.230752 0.754333,-0.200347 0.01303,0.0014 0.02732,0.0016 0.03985,-0.0017 0.0302,-0.008 0.03635,-0.02747 0.0155,-0.05036 -0.0096,-0.0106 -0.02474,-0.01864 -0.03874,-0.02269 -0.08762,-0.02531 -0.174121,-0.05581 -0.263436,-0.07251 -0.121508,-0.02273 -0.243555,-0.03482 -0.366374,-0.03597 z m 0.567825,0.343689 c -0.115197,0.0034 -0.230482,0.02591 -0.343684,0.05921 -0.139044,0.04091 -0.259757,0.116146 -0.373015,0.2009 -0.0794,0.0594 -0.154136,0.130185 -0.214179,0.208648 -0.06126,0.08006 -0.107591,0.17339 -0.149982,0.265653 -0.04409,0.096 -0.09232,0.194678 -0.108473,0.297199 -0.0189,0.120032 -0.01181,0.245627 -0.0039,0.36804 0.0084,0.12859 0.03064,0.256432 0.09187,0.373574 0.096,0.183619 0.226195,0.363579 0.376889,0.480388 0.150694,0.11681 0.293002,0.192746 0.384638,0.344795 0.05318,0.08959 0.05823,0.133846 0.06365,0.243516 0.0055,0.109669 -0.08689,0.223038 -0.08689,0.223038 0,0 0.363108,-0.03288 0.641986,-0.196473 0.27888,-0.163593 0.370771,-0.27216 0.509163,-0.445522 0.104644,-0.131055 0.183878,-0.280102 0.242959,-0.441648 0.07016,-0.191808 0.113737,-0.384727 0.113454,-0.640887 -0.01173,-0.204928 -0.041,-0.460381 -0.163264,-0.691803 -0.08521,-0.161291 -0.170308,-0.323256 -0.324313,-0.439435 -0.136352,-0.102856 -0.289476,-0.161089 -0.449943,-0.192598 -0.06898,-0.01355 -0.137868,-0.01867 -0.206985,-0.0166 z m -2.299526,1.473265 c 0,0 0.0052,0.167284 0.04538,0.308269 0.04009,0.140984 0.113629,0.354328 0.213626,0.511935 0.05549,0.08744 0.123467,0.167749 0.190936,0.246835 0.09903,0.116094 0.216385,0.212924 0.344236,0.294985 0.07782,0.04996 0.164165,0.08772 0.248493,0.12674 0.147687,0.06835 0.304703,0.10125 0.464886,0.120096 0.115979,0.0091 0.208507,-0.03908 0.27229,-0.128398 0.03185,-0.04461 0.05475,-0.108575 0.05203,-0.162159 -0.0067,-0.13233 -0.08296,-0.226893 -0.204772,-0.277276 -0.18747,-0.07753 -0.376668,-0.151969 -0.566717,-0.223037 -0.228728,-0.08555 -0.449695,-0.183513 -0.639773,-0.340921 -0.100959,-0.08362 -0.21386,-0.191044 -0.269523,-0.282809 -0.05566,-0.09176 -0.151088,-0.19426 -0.151088,-0.19426 z"
         style="display:none;fill:none;stroke:#737373;stroke-width:0.105833;stroke-dasharray:none;stroke-opacity:1" /></g><g
       id="layer10"
       style="display:inline"><text
         xml:space="preserve"
         style="font-style:normal;font-variant:normal;font-weight:bold;font-stretch:normal;font-size:1.43374px;text-align:start;letter-spacing:0px;word-spacing:0px;writing-mode:lr-tb;direction:ltr;text-anchor:start;fill:#737373;fill-opacity:1;stroke:none;stroke-width:0.1;stroke-dasharray:none;stroke-opacity:1;paint-order:markers fill stroke"
         x="6.2954416"
         y="77.657654"
         id="artist"
         transform="scale(0.91458237,1.0933952)"><tspan
           id="tspan4"
           style="font-style:normal;font-variant:normal;font-weight:bold;font-stretch:normal;font-size:1.43374px;text-align:start;letter-spacing:0px;text-anchor:start;fill:#737373;fill-opacity:1;stroke:none;stroke-width:0.1"
           x="6.2954416"
           y="77.657654">Artist</tspan></text><text
         xml:space="preserve"
         style="font-style:normal;font-variant:normal;font-weight:450;font-stretch:normal;font-size:1.68118px;text-align:start;letter-spacing:-0.03175px;word-spacing:0px;writing-mode:lr-tb;direction:ltr;text-anchor:start;fill:#000000;fill-opacity:1;stroke:none;stroke-width:0.1;stroke-dasharray:none;stroke-opacity:1;paint-order:markers fill stroke"
         x="3.016438"
         y="77.948112"
         id="card-and-set-text"
         transform="scale(0.89378771,1.1188339)"><tspan
           id="tspan6"
           style="font-style:normal;font-variant:normal;font-weight:bold;font-stretch:normal;font-size:1.68118px;text-align:start;letter-spacing:-0.03175px;text-anchor:start;stroke-width:0.1"
           x="3.016438"
           y="77.948112">c#/204  EN  s#</tspan></text></g><g
       id="layer9"
       style="display:inline"><path
         style="fill:#737373"
         d="m 3.4921875,83.677734 c -0.4026787,0 -0.7304687,0.32779 -0.7304687,0.730469 0,0.40268 0.3277892,0.730469 0.7304687,0.730469 0.089207,0 0.2085851,-0.03021 0.3496094,-0.07617 0.1410243,-0.04596 0.3010795,-0.108179 0.4628906,-0.175781 0.3236222,-0.135204 0.6516743,-0.292036 0.8222656,-0.375 l -0.021484,-0.09375 H 4.0839844 c -0.047287,0 -0.09479,0.0067 -0.140625,0.02148 -0.1666638,0.05393 -0.3174824,0.158537 -0.4394531,0.316406 -0.079488,-0.151489 -0.1935556,-0.265896 -0.3398438,-0.347656 0.1458808,-0.08152 0.2584454,-0.196779 0.3378906,-0.347656 0.1222182,0.15939 0.2738953,0.262222 0.4414063,0.316406 0.045771,0.01481 0.093428,0.02148 0.140625,0.02148 h 1.0214843 l 0.021484,-0.09375 C 4.9563616,84.221722 4.6283098,84.06489 4.3046875,83.929687 4.1428764,83.862086 3.9828212,83.799864 3.8417969,83.753906 3.7007726,83.707948 3.5813941,83.677734 3.4921875,83.677734 Z m 0,0.09961 c 0.064513,0 0.1814424,0.02765 0.3183594,0.07227 0.1369169,0.04462 0.2967625,0.106871 0.4570312,0.173828 0.2375811,0.09926 0.4259427,0.19109 0.6035156,0.275391 H 4.0839844 c -0.037642,0 -0.074427,-0.0043 -0.109375,-0.01563 -0.1733975,-0.05609 -0.3245583,-0.139007 -0.4355469,-0.310547 l -0.050781,-0.07813 -0.037109,0.08398 C 3.3698436,84.158853 3.2514151,84.28193 3.078125,84.363281 l -0.095703,0.04492 0.095703,0.04492 c 0.1732918,0.08137 0.2917173,0.204438 0.3730469,0.384766 l 0.037109,0.08398 0.050781,-0.07617 c 0.1109634,-0.171492 0.2602427,-0.254451 0.4335938,-0.310547 0.035043,-0.01133 0.073609,-0.01758 0.1113281,-0.01758 h 0.7890625 c -0.1777269,0.08439 -0.3671768,0.177791 -0.6054688,0.277344 -0.1602687,0.06696 -0.3201143,0.127255 -0.4570312,0.171875 -0.136917,0.04462 -0.2538462,0.07227 -0.3183594,0.07227 -0.3486349,0 -0.6308594,-0.282223 -0.6308594,-0.630859 0,-0.348635 0.2822237,-0.630859 0.6308594,-0.630859 z"
         id="path1-8" /><text
         xml:space="preserve"
         style="font-style:normal;font-variant:normal;font-weight:bold;font-stretch:normal;font-size:1.21537px;text-align:start;letter-spacing:0px;word-spacing:0px;writing-mode:lr-tb;direction:ltr;text-anchor:start;display:inline;fill:#000000;fill-opacity:1;stroke:none;stroke-width:0.0999993;stroke-dasharray:none;stroke-opacity:1;paint-order:markers fill stroke"
         x="69.453506"
         y="73.920235"
         id="text5"
         transform="scale(0.87391755,1.1442727)"><tspan
           id="tspan5"
           style="font-style:normal;font-variant:normal;font-weight:bold;font-stretch:normal;font-size:1.21537px;text-align:end;letter-spacing:0px;text-anchor:end;fill:#000000;fill-opacity:1;stroke-width:0.0999993"
           x="69.453506"
           y="73.920235">Disney Lorcana  Disney</tspan></text><text
         xml:space="preserve"
         style="font-style:normal;font-variant:normal;font-weight:bold;font-stretch:normal;font-size:1.23472px;text-align:end;letter-spacing:0px;word-spacing:0px;writing-mode:lr-tb;direction:ltr;text-anchor:end;display:inline;fill:#737373;fill-opacity:1;stroke:none;stroke-width:0.1;stroke-dasharray:none;stroke-opacity:1;paint-order:markers fill stroke"
         x="72.187164"
         y="72.500893"
         id="text9"
         transform="scale(0.84103893,1.1890056)"><tspan
           id="tspan9"
           style="font-style:normal;font-variant:normal;font-weight:bold;font-stretch:normal;font-size:1.23472px;letter-spacing:0px;fill:#737373;fill-opacity:1;stroke-width:0.1"
           x="72.187164"
           y="72.500893">Proxy Only - Support official product</tspan></text></g><g
       id="layer11"
       style="display:inline"><text
         xml:space="preserve"
         style="font-style:italic;font-variant:normal;font-weight:bold;font-stretch:normal;font-size:1.76389px;text-align:start;letter-spacing:0px;word-spacing:0px;writing-mode:lr-tb;direction:ltr;text-anchor:start;fill:#000000;fill-opacity:1;stroke:none;stroke-width:0.0999999;stroke-dasharray:none;stroke-opacity:1;paint-order:markers fill stroke"
         x="4.6496797"
         y="48.66753"
         id="ink-color-text"
         transform="scale(0.83321693,1.2001676)"><tspan
           id="tspan10"
           style="font-style:italic;font-variant:normal;font-weight:bold;font-stretch:normal;font-size:1.76389px;letter-spacing:0px;fill:#000000;fill-opacity:1;stroke-width:0.0999999"
           x="4.6496797"
           y="48.66753">InkColor</tspan></text><text
         xml:space="preserve"
         style="font-style:italic;font-variant:normal;font-weight:bold;font-stretch:normal;font-size:2.01083px;line-height:0;text-align:center;letter-spacing:0px;word-spacing:0px;writing-mode:lr-tb;direction:ltr;text-anchor:middle;fill:#000000;fill-opacity:1;stroke:none;stroke-width:0.0999986;stroke-dasharray:none;stroke-opacity:1;paint-order:markers fill stroke"
         x="34.496929"
         y="53.673164"
         id="classifications"
         transform="scale(0.92094903,1.0858364)"><tspan
           id="tspan11"
           style="font-style:italic;font-variant:normal;font-weight:bold;font-stretch:normal;font-size:2.01083px;line-height:0;stroke-width:0.0999986"
           x="34.496929"
           y="53.673164">Classifications</tspan></text></g><g
       id="layer13"
       style="display:inline">

       <g id="name"></g>
              
       <rect
         style="display:inline;fill:none;stroke-width:5;paint-order:markers fill stroke;stroke:none;stroke-dasharray:none"
         id="name-text-area"
         width="50"
         height="25"
         x="6.75"
         y="12.5" /></g>
      <g id="card-text"></g>
      <rect
        id="card-text-area"
        width="56.5"
        height="22"
        x="3.5"
        y="60"
        fill="none"
        stroke="none" />
      </g>
</svg>
