<?xml version="1.0" encoding="UTF-8" standalone="no"?>
<!-- Created with Inkscape (http://www.inkscape.org/) -->

<svg
   width="4in"
   height="4in"
   viewBox="0 0 101.6 101.6"
   version="1.1"
   id="svg1"
   xml:space="preserve"
   xmlns="http://www.w3.org/2000/svg"
   xmlns:svg="http://www.w3.org/2000/svg"><defs
     id="defs1"><style
       id="style1">
      .cls-1 {
        stroke-width: 0px;
      }
    </style><style
       id="style1-8">
      .cls-1 {
        fill: #130002;
        stroke-width: 0px;
      }
    </style><style
       id="style1-1">
      .cls-1 {
        stroke-width: 0px;
      }
    </style></defs><g
     id="layer1"><path
       style="display:inline;fill:#000000;stroke-width:0.999997"
       d="M 29.096807,88.336194 7.4951859,75.858976 7.478166,50.835418 7.4611463,25.811859 16.145901,20.799092 C 20.922516,18.04207 30.671909,12.414402 37.811218,8.2931614 L 50.791779,0.79999821 61.715205,7.1055313 C 67.72309,10.573576 77.47618,16.203237 83.388744,19.615887 l 10.75011,6.20482 -0.017,25.014652 -0.017,25.014653 -7.584274,4.377731 c -4.171341,2.407749 -13.89017,8.018474 -21.597388,12.468275 -7.707219,4.449798 -14.060737,8.096582 -14.118927,8.103972 -0.05819,0.008 -9.82653,-5.601325 -21.707421,-12.463796 z m 21.855495,6.689764 c 0.171523,-0.05844 0.408972,-0.205583 0.527663,-0.326975 C 51.672426,94.502146 61.4614,78.614718 61.41611,78.5727 61.40604,78.5632 60.803448,78.52068 60.077185,78.47803 50.145926,77.894705 42.405675,75.110434 37.516391,70.362613 34.153742,67.097257 32.23246,63.053012 31.590151,57.888048 c -0.172145,-1.384254 -0.171222,-5.07612 0.0016,-6.534659 0.759416,-6.407972 3.3764,-11.020754 7.98668,-14.077594 5.114882,-3.391419 12.711362,-4.709383 21.080286,-3.657362 l 0.344552,0.04331 1.781926,-3.106172 c 0.980057,-1.708395 1.87631,-3.208929 1.991672,-3.33452 0.57291,-0.623717 1.586151,-0.638418 2.155785,-0.03127 0.112007,0.11939 1.838839,3.748324 4.362225,9.167221 4.528929,9.725751 4.36987,9.340783 4.124679,9.982803 -0.131528,0.344389 -0.527385,0.731345 -0.859111,0.839787 -0.125909,0.04116 -4.464608,0.775 -9.641549,1.630752 -7.167822,1.184848 -9.469141,1.542953 -9.649626,1.501563 -0.354529,-0.0813 -0.633239,-0.244937 -0.863095,-0.50673 -0.269403,-0.306831 -0.378159,-0.652962 -0.342037,-1.088558 0.02568,-0.309573 0.226098,-0.707138 1.626279,-3.225884 l 1.596999,-2.872793 -0.348834,-0.05543 c -0.585622,-0.09304 -3.930877,-0.08684 -4.750421,0.0089 -5.310396,0.61964 -8.299262,3.04098 -9.179571,7.436546 -0.18728,0.935133 -0.254183,3.021374 -0.134662,4.199185 0.10607,1.045318 0.3545,2.396028 0.658323,3.579419 0.228455,0.889818 0.821057,2.721209 1.071577,3.311621 0.139653,0.329113 1.769943,1.966459 2.690513,2.702149 3.129868,2.501289 6.578248,3.882575 10.606475,4.248538 1.138055,0.103394 3.795895,0.04978 4.936444,-0.09957 1.837181,-0.240579 3.775019,-0.673828 5.241729,-1.171918 l 0.751962,-0.255364 0.72766,-1.185041 C 78.791887,50.299907 90.138164,31.728525 90.198972,31.553108 90.368507,31.064014 90.246362,30.522257 89.877154,30.124799 89.715694,29.951033 85.622447,27.408516 77.54803,22.466586 70.899944,18.39764 62.433632,13.214074 58.733998,10.947552 55.034363,8.6810298 51.88929,6.7663542 51.744949,6.6927173 51.24706,6.4387115 50.517692,6.553048 50.103177,6.9500893 49.999295,7.0495943 41.239487,21.284874 30.636959,38.584034 l -19.277323,31.453015 -0.02624,0.41218 c -0.03156,0.495398 0.157256,0.966328 0.487779,1.216703 0.116036,0.0879 1.292752,0.822252 2.61492,1.631896 3.029703,1.855269 12.377717,7.581987 25.340593,15.523979 5.538765,3.393448 10.170586,6.198776 10.292935,6.234065 0.330102,0.0952 0.535947,0.08824 0.882626,-0.02988 z"
       id="symbol-exert" /><path
       id="symbol-inkwell"
       style="display:inline;fill:#000000;fill-opacity:1;stroke:none;stroke-width:0.999995"
       d="m 49.815923,8.2563989 c -0.647629,0.013902 -1.295935,0.041688 -1.943592,0.086157 -0.630305,0.043542 -1.257359,0.1049673 -1.886146,0.1723071 -0.304406,0.032421 -0.694782,0.018536 -0.981376,0.1292356 -0.199356,0.076889 -0.373885,0.2762445 -0.536184,0.4116809 -0.363418,0.3033877 -0.721833,0.6159468 -1.077117,0.9287186 -1.241259,1.0926509 -2.4571,2.2132789 -3.599952,3.4084709 -3.714099,3.884199 -6.892855,8.128576 -9.239253,12.978052 -0.570277,1.178692 -1.03982,2.395181 -1.488815,3.623888 -0.247806,0.678107 -0.563886,1.441459 -0.6606,2.159019 l 1.613275,-0.957436 3.480282,-2.07764 10.139247,-6.055782 3.796232,-2.26433 1.34519,-0.804279 0.646239,-0.397323 0.416499,-0.866438 0.947867,-2.106367 c 0.377683,0.649482 0.651613,1.395734 0.957428,2.08243 0.122009,0.274111 0.225295,0.635401 0.411682,0.871255 0.121633,0.154052 0.374532,0.24966 0.540911,0.349429 l 1.22552,0.732393 c 1.410167,0.846057 2.826521,1.681456 4.236651,2.527626 0.480973,0.288565 0.964818,0.573148 1.445728,0.861715 0.190369,0.114321 0.440492,0.334792 0.660598,0.373422 0.14137,0.02408 0.324047,-0.03891 0.464393,-0.06206 0.317561,-0.05188 0.638644,-0.0944 0.957438,-0.138864 0.985524,-0.137284 1.974291,-0.226591 2.963261,-0.320711 2.759163,-0.262629 5.626018,-0.160163 8.372778,0.201024 3.36532,0.442621 6.666459,1.284827 9.79936,2.599437 1.032621,0.433266 2.049949,0.908127 3.035066,1.440949 0.477731,0.258459 0.947775,0.584913 1.44573,0.799464 -0.09496,-0.259293 -0.285046,-0.498484 -0.430858,-0.732394 -0.305054,-0.489678 -0.62799,-0.96604 -0.947848,-1.445717 -1.323329,-1.98406 -2.878601,-3.813394 -4.523891,-5.533978 C 74.659707,14.179229 65.345295,9.554306 55.637073,8.5149866 53.701392,8.3077568 51.758866,8.2144704 49.815858,8.2564349 Z m -8.090326,0.9718045 c -0.891914,0.073182 -1.83754,0.4237241 -2.695189,0.6702331 -2.044973,0.5876005 -4.039832,1.3258665 -5.974399,2.2116745 -8.888705,4.070014 -16.272475,11.264174 -20.532209,20.067856 -1.180889,2.440555 -2.129913,4.975036 -2.8387941,7.592463 -0.1973191,0.728688 -0.3775909,1.461997 -0.5265534,2.202107 -0.060205,0.296625 -0.1759174,0.629471 -0.1723044,0.933499 0.00203,0.176567 0.1020839,0.370272 0.1579481,0.536186 0.1355347,0.402787 0.2834702,0.802984 0.4308569,1.201574 0.5288679,1.430371 1.1352559,2.827631 1.7712589,4.212722 1.994791,4.344386 4.578056,8.468426 7.664266,12.121134 0.830033,0.982384 1.699826,1.934404 2.609018,2.843584 0.41724,0.41724 0.83837,0.909238 1.32126,1.249458 v -8.794055 -2.398377 c 0,-0.236783 0.09374,-0.721925 -0.02408,-0.928711 -0.136461,-0.239931 -0.627064,-0.434008 -0.856897,-0.583988 -0.519697,-0.339239 -1.048436,-0.669213 -1.570197,-1.005303 -0.279488,-0.179994 -0.569815,-0.427892 -0.880891,-0.545728 0.698209,-0.595103 1.594774,-1.061876 2.37444,-1.546259 0.2227,-0.138315 0.438453,-0.286898 0.660597,-0.426039 0.08709,-0.05466 0.238451,-0.116072 0.282453,-0.215383 0.09373,-0.211954 0.0139,-0.615671 0.0139,-0.847355 v -2.082568 -7.223849 -2.182958 c 0,-0.217235 -0.08616,-0.663101 0.02408,-0.852081 0.117651,-0.201394 0.534982,-0.346094 0.732393,-0.464392 l 1.886157,-1.124991 c 0.204636,-0.122833 0.624377,-0.279488 0.751569,-0.483476 0.06392,-0.102822 0.07411,-0.261237 0.1005,-0.378147 0.06484,-0.286341 0.129871,-0.576853 0.201025,-0.861714 0.220385,-0.881631 0.470784,-1.762226 0.775561,-2.618595 0.971397,-2.729352 2.211055,-5.335553 3.714849,-7.812673 1.945288,-3.204351 4.305406,-6.104602 6.855245,-8.841923 0.772597,-0.829384 1.593153,-1.625982 2.422315,-2.398377 0.42317,-0.394173 0.970659,-0.7671318 1.321261,-1.2255108 z M 67.863593,25.418443 c -1.122407,0.0016 -2.247527,0.07132 -3.360604,0.148407 -0.657727,0.04539 -1.323216,0.186107 -1.981888,0.191481 0.134796,0.156474 0.360545,0.248917 0.536187,0.354246 l 1.077115,0.64624 c 0.767318,0.460409 1.55165,1.056995 2.374439,1.407434 0.275875,0.117461 0.618172,0.152199 0.909609,0.225015 0.583247,0.145816 1.163555,0.300331 1.737742,0.478751 2.583003,0.802706 5.055371,1.929966 7.348328,3.365386 4.752622,2.97523 8.524739,7.319367 11.087104,12.283907 1.516245,2.937723 2.603262,6.077469 3.39411,9.282339 0.547024,2.216289 1.035948,4.527922 1.215943,6.80737 h 0.02408 c 0.02316,-0.278653 0.121546,-0.553972 0.177122,-0.82818 0.190647,-0.938278 0.470969,-1.932577 0.512193,-2.891458 h 0.02408 l 0.04818,0.148405 c 0.310706,-0.144784 0.613077,-0.5423 0.856899,-0.785103 0.449013,-0.446883 0.941455,-0.860603 1.421791,-1.273388 1.100571,-0.945867 2.269705,-1.828165 3.499434,-2.599437 0.650044,-0.407697 1.324193,-0.829663 2.034543,-1.12499 -0.23084,-0.191298 -0.56851,-0.30691 -0.832992,-0.450033 -0.486079,-0.262721 -0.95596,-0.55175 -1.42179,-0.847357 C 97.199566,49.103545 95.949532,48.096296 94.748969,47.05166 94.329692,46.686946 93.916343,46.309911 93.523456,45.917099 93.369489,45.763131 93.136973,45.594072 93.035165,45.40009 92.882776,45.109393 92.90852,44.60072 92.862858,44.275109 92.76031,43.54568 92.618665,42.817307 92.465536,42.096939 91.929535,39.576085 91.182478,37.111834 90.210775,34.724683 89.962043,34.11374 89.695987,33.509567 89.420854,32.910341 c -0.12793,-0.278562 -0.239932,-0.661897 -0.440399,-0.895157 -0.126918,-0.147566 -0.342574,-0.255032 -0.502653,-0.363789 -0.3397,-0.231316 -0.677087,-0.454664 -1.024459,-0.674955 -1.297611,-0.823179 -2.644357,-1.570522 -4.040943,-2.211687 -4.57136,-2.09875 -9.424837,-3.10333 -14.428552,-3.322307 -0.372773,-0.01664 -0.746103,-0.02408 -1.120201,-0.02408 z m 10.771156,10.407321 v 9.282342 2.522844 c 0,0.253085 -0.102359,0.780102 0.02408,1.000523 0.05281,0.09172 0.182495,0.144613 0.268092,0.201023 0.210565,0.138779 0.429469,0.270318 0.641516,0.406957 0.794272,0.511637 1.694978,0.972807 2.422305,1.574977 -0.261608,0.08337 -0.499688,0.300608 -0.732392,0.445218 -0.593343,0.368604 -1.17445,0.763889 -1.766469,1.134559 -0.197782,0.123864 -0.391764,0.253179 -0.588804,0.378147 -0.08338,0.05281 -0.21316,0.104402 -0.253735,0.201023 -0.06021,0.14257 -0.0139,0.382964 -0.0139,0.536185 v 1.225522 4.23665 c 0,2.335532 -0.101998,4.694585 0,7.027589 0.03891,0.881817 0.205471,1.763281 0.244101,2.647304 0.08708,1.984435 -0.05928,3.985211 -0.34943,5.95046 -0.351836,2.38868 -0.926478,4.761285 -1.689867,7.051518 -0.279579,0.838647 -0.573703,1.671811 -0.885614,2.498908 -0.163045,0.432154 -0.396211,0.872275 -0.502652,1.321261 0.532944,-0.265127 1.026184,-0.729613 1.493596,-1.096264 0.962995,-0.755181 1.895457,-1.545436 2.790928,-2.379229 3.515772,-3.273665 6.474607,-7.114148 8.717447,-11.364757 0.67366,-1.276621 1.26404,-2.586712 1.814342,-3.920702 0.166753,-0.403899 0.32942,-0.808262 0.473934,-1.22073 0.05744,-0.163596 0.150998,-0.342945 0.167577,-0.517011 0.04818,-0.516269 -0.06484,-1.073687 -0.1005,-1.589345 -0.07967,-1.16212 -0.211863,-2.324332 -0.363789,-3.480283 -0.57491,-4.366166 -1.628821,-8.697861 -3.413316,-12.733894 -1.450761,-3.281205 -3.387933,-6.390613 -5.873871,-8.990329 -0.500705,-0.52368 -1.010074,-1.029861 -1.54147,-1.522321 -0.302556,-0.280321 -0.622989,-0.621321 -0.981367,-0.82818 z M 8.2201277,45.76874 c -2.1915915,2.191602 -4.6919084,4.007687 -7.42013112,5.462171 0.16618693,0.137662 0.39824962,0.210658 0.58880582,0.311169 0.3566538,0.188241 0.7083991,0.389078 1.0531868,0.598441 1.0679346,0.648276 2.0837065,1.383605 3.0590036,2.163799 0.7696326,0.615669 1.4926235,1.278139 2.230824,1.929234 0.2730956,0.240856 0.5258095,0.649851 0.8568964,0.804279 l 0.072258,-0.148407 h 0.024076 c 0.00477,0.590565 0.1825886,1.205827 0.2872696,1.785618 0.252344,1.398354 0.6034402,2.776162 0.9957325,4.140917 0.1560087,0.542763 0.3229347,1.086222 0.5121917,1.618064 0.06855,0.193796 0.10459,0.466895 0.229836,0.631881 0.118938,0.156834 0.359433,0.260404 0.521827,0.368604 0.389541,0.259756 0.78075,0.522293 1.177645,0.770745 1.301855,0.815118 2.60771,1.617424 3.944637,2.37444 4.082234,2.311492 8.44098,4.235751 13.001981,5.375999 2.124891,0.531276 4.367999,0.957437 6.563223,0.957437 v -0.02408 C 34.927103,74.360834 33.978318,73.744712 33.008828,73.17524 31.276386,72.157635 29.547184,71.133851 27.814733,70.116237 26.711604,69.468237 25.60401,68.821024 24.506793,68.163066 24.02517,67.874223 23.454569,67.630215 23.017987,67.277452 22.392868,66.7723 21.818024,66.161523 21.227581,65.611516 19.020767,63.55585 17.051071,61.219289 15.286688,58.775419 13.287818,56.006769 11.612013,53.055677 10.087811,50.005309 9.6086908,49.046407 9.1860775,48.054361 8.7713393,47.065983 8.6520242,46.781585 8.5364101,46.495429 8.4219111,46.209086 8.3644838,46.064764 8.3255568,45.88504 8.220887,45.768686 Z m 3.5520853,21.992299 c 0.08894,0.375459 0.315801,0.759072 0.483475,1.105832 0.310244,0.641145 0.625952,1.277168 0.952646,1.910084 1.427177,2.764751 3.245207,5.351258 5.265901,7.712152 3.682408,4.302385 8.240379,7.868562 13.308358,10.402541 8.101871,4.05094 17.444118,5.382439 26.353415,3.834529 3.8203,-0.663657 7.454834,-1.88436 10.972216,-3.49943 0.918874,-0.421964 1.818681,-0.903679 2.695188,-1.407433 0.329421,-0.18926 0.805114,-0.364898 1.067537,-0.641516 0.288382,-0.303851 0.429283,-0.909609 0.593622,-1.292535 0.456797,-1.064303 0.879131,-2.140696 1.268607,-3.231346 1.218917,-3.413259 2.130841,-7.002613 2.379229,-10.62754 0.08894,-1.294563 0.05466,-2.578075 0.02871,-3.872824 -0.292085,0.09264 -0.567403,0.316728 -0.832998,0.469117 -0.61641,0.353875 -1.226918,0.724239 -1.838262,1.086722 -1.810137,1.073251 -3.623287,2.134146 -5.433451,3.207408 -3.864376,2.291234 -7.735164,4.570301 -11.608905,6.845667 -1.225493,0.719793 -2.457656,1.43765 -3.676554,2.16859 -0.357858,0.214549 -0.71933,0.422149 -1.077117,0.636698 -0.161002,0.09671 -0.372495,0.178883 -0.50265,0.315987 -0.207878,0.218902 -0.310893,0.622616 -0.435674,0.895248 -0.310244,0.677645 -0.573426,1.41453 -0.947868,2.058491 -0.273559,-0.705064 -0.612427,-1.397577 -0.933498,-2.082419 -0.122555,-0.261516 -0.217973,-0.663747 -0.421312,-0.871257 -0.195004,-0.199077 -0.534427,-0.330715 -0.775562,-0.469116 -0.476713,-0.273466 -0.948072,-0.559346 -1.421792,-0.83772 -1.593988,-0.936121 -3.183999,-1.883757 -4.777598,-2.819805 -0.898769,-0.527942 -1.78645,-1.06562 -2.690398,-1.584555 -0.328679,-0.188705 -0.734895,-0.550547 -1.105842,-0.631883 -0.146278,-0.03242 -0.339795,0.01945 -0.488294,0.03336 -0.315338,0.03056 -0.636328,0.03891 -0.952647,0.05281 -0.887654,0.03891 -1.787553,-0.01115 -2.67124,-0.07132 -2.72676,-0.186864 -5.429091,-0.832825 -8.032893,-1.642014 -3.536651,-1.099052 -6.913762,-2.676161 -10.163174,-4.43772 -1.07039,-0.58028 -2.118854,-1.206521 -3.159544,-1.838272 -0.468189,-0.284304 -0.926096,-0.644293 -1.421791,-0.876072 z" /><path
       id="symbol-lore"
       style="display:inline"
       class="cls-1"
       d="m 50.799999,0.8000005 -0.455321,2.065836 C 44.984717,27.187153 39.569959,51.479434 15.838453,66.834368 32.027115,74.135397 43.45214,85.149999 50.799999,100.8 58.1479,85.149999 69.573296,74.135397 85.761546,66.834368 62.03004,51.479434 56.615282,27.187153 51.255321,2.8658365 Z m 0,19.4943215 0.0539,0.190656 c 5.136105,17.51924 12.120007,33.662348 27.080318,45.783858 -11.617492,6.36775 -20.473538,14.769174 -27.122149,26.884833 -0.0041,-0.007 -0.008,-0.0131 -0.01207,-0.0201 -0.0041,0.007 -0.008,0.0131 -0.01207,0.0201 C 44.13932,81.03801 35.283316,72.636586 23.665783,66.268836 38.625724,54.147326 45.609955,38.004218 50.746101,20.484978 Z m 0.08608,29.245906 c -3.027031,6.659443 -5.989125,11.194743 -10.848858,16.054475 4.193599,2.768865 7.555835,5.791534 10.848858,10.207713 C 54.179102,71.386237 57.54058,68.363568 61.734138,65.594703 56.874405,60.73497 53.913069,56.19963 50.886079,49.540228 Z" /><path
       class="cls-1"
       d="M 85.098273,66.50193 100.79952,50.800432 85.098273,35.098604 c 1.00195,-9.212471 2.25427,-18.472183 2.2759,-18.62668 l 0.35187,-2.599341 -2.59844,0.352777 c -0.15429,0.02109 -9.413551,1.273949 -18.625897,2.276261 L 50.800909,0.8000005 35.099204,16.501621 C 25.886858,15.499349 16.626692,14.246489 16.472402,14.22536 l -2.600249,-0.352777 0.353683,2.599341 c 0.02167,0.154489 1.274855,9.413756 2.277252,18.626104 L 0.800477,50.800432 16.503088,66.502505 c -1.002397,9.212018 -2.255587,18.471034 -2.277252,18.625524 l -0.328435,2.42615 2.441468,-0.16603 c 0.161046,-0.0112 10.232783,-0.69258 19.846631,-1.20348 L 50.800909,100.8 65.415863,86.184799 c 9.612942,0.51089 19.68423,1.19206 19.84527,1.20335 l 2.44147,0.16603 -0.32843,-2.42615 c -0.0217,-0.15449 -1.27395,-9.414001 -2.2759,-18.626099 z m 10.05683,-15.701498 -10.5842,10.5842 c -0.0979,-1.01739 -0.18946,-2.01303 -0.27159,-2.970201 0.5576,-2.453085 0.87879,-4.994598 0.87879,-7.614041 0,-2.619442 -0.32119,-5.161163 -0.87879,-7.61437 0.0821,-0.957048 0.17369,-1.952771 0.27159,-2.970077 l 10.5842,10.584406 z m -19.288119,0 c 0,13.821465 -11.245558,25.065169 -25.066075,25.065169 -13.820518,0 -25.066075,-11.243746 -25.066075,-25.065169 0,-13.821424 11.245557,-25.066077 25.066075,-25.066077 13.820517,0 25.066075,11.244653 25.066075,25.066077 z m 7.207099,-32.275897 c -0.37399,2.861013 -0.995185,7.737399 -1.591548,12.958327 L 70.117901,20.117446 C 75.338293,19.521082 80.21398,18.899307 83.074083,18.524535 Z M 50.800909,6.4444235 61.385109,17.028954 c -1.016812,0.09798 -2.011548,0.189712 -2.968389,0.271594 -2.45366,-0.557935 -4.99571,-0.87912 -7.615811,-0.87912 -2.620102,0 -5.162646,0.321309 -7.616264,0.879243 -0.95639,-0.08201 -1.951537,-0.173566 -2.968389,-0.271594 z M 18.525919,18.524535 c 2.860558,0.374895 7.73674,0.996631 12.957543,1.593035 L 20.11883,31.482202 C 19.522467,26.261482 18.900814,21.385423 18.525919,18.524535 Z M 6.4449,50.800432 17.030007,40.215201 c 0.09835,1.017842 0.190371,2.013936 0.272007,2.971519 -0.557153,2.45296 -0.878338,4.994352 -0.878338,7.613671 0,2.619317 0.321185,5.160503 0.878338,7.613339 -0.08163,0.957624 -0.173691,1.953677 -0.272007,2.971643 L 6.4449,50.800391 Z m 12.057582,32.443737 c 0.372177,-2.835516 1.00734,-7.801242 1.615935,-13.12625 l 12.275921,12.27555 c -5.604265,0.31657 -10.913499,0.65559 -13.891814,0.8507 z M 50.800949,95.15558 41.561996,85.917069 c 3.734364,-0.17109 7.057795,-0.28646 9.238953,-0.28646 2.181161,0 5.50459,0.11524 9.238048,0.28646 z M 69.20715,82.39347 81.482618,70.117795 c 0.6081,5.325132 1.242855,10.290858 1.615025,13.126374 -2.977407,-0.19511 -8.286188,-0.53413 -13.890453,-0.8507 z"
       id="symbol-strength"
       style="display:inline" /><path
       id="symbol-willpower"
       class="cls-1"
       d="M 38.915003,0.79999535 C 22.85283,2.0355947 16.795752,5.3411354 16.795752,5.3411354 l -2.301544,4.337614 C 18.267318,8.30727 27.046519,5.6087262 40.68239,4.1264106 Z m 23.769993,0 -1.767387,3.32641525 C 74.55348,5.6087262 83.332681,8.30727 87.105791,9.6787494 l -2.301544,-4.337614 c 0,0 -6.057078,-3.3055407 -22.119251,-4.54114005 z M 42.206024,6.9950918 C 29.082286,8.3270711 20.34102,10.853102 16.222176,12.278743 c 2.882091,4.860311 7.399572,15.032803 8.61087,31.14844 0.560363,7.456719 -0.513223,15.579404 -1.813241,21.917334 L 50.799999,90.531151 78.580996,65.344517 C 77.280938,59.006587 76.206549,50.883902 76.766953,43.427183 77.97825,27.311546 82.495732,17.139054 85.377823,12.278743 81.25902,10.853061 72.517712,8.3270711 59.393975,6.9950918 L 58.21304,9.2177966 50.799999,9.0118565 43.386959,9.2177966 Z m -29.63124,6.2996732 -3.0770359,5.799306 c 0,0 6.1929709,6.218135 7.5312929,24.030634 0.860418,11.452576 -3.706922,23.698396 -3.706922,23.698396 l 4.608713,4.177528 C 19.67601,65.047065 22.61412,54.10649 21.819562,43.54061 20.441823,25.194643 14.911256,16.591537 12.574784,13.294765 Z m 76.450431,0 c -2.336472,3.296772 -7.867039,11.899878 -9.244778,30.245845 -0.794558,10.56588 2.143552,21.506455 3.888729,27.460019 l 4.608713,-4.177528 c 0,0 -4.567339,-12.24582 -3.706921,-23.698396 1.338322,-17.812499 7.531294,-24.030634 7.531294,-24.030634 z M 22.266839,68.734484 c -0.42193,1.759346 -0.840339,3.306336 -1.210701,4.53551 L 50.799999,100.8 80.54386,73.269994 c -0.370403,-1.229174 -0.78877,-2.776164 -1.2107,-4.53551 l -28.533161,25.8672 z"
       style="display:inline" /><path
       style="paint-order:markers fill stroke"
       d="M -38.564453,-6.9355469 -80.365234,17.197266 V 65.464844 L -38.564453,89.599609 3.2363281,65.464844 V 17.197266 Z m 0,5.5859375 36.9628905,21.3398434 V 62.671875 L -38.564453,84.013672 -75.527344,62.671875 V 19.990234 Z"
       id="symbol-ink"
       transform="matrix(1.0311142,0,0,1.0358938,90.564678,7.9847015)" /></g></svg>
